<svg class="animated" id="freepik_stories-convertible-car" xmlns="http://www.w3.org/2000/svg" viewBox="0 0 750 500" version="1.1" xmlns:xlink="http://www.w3.org/1999/xlink" xmlns:svgjs="http://svgjs.com/svgjs"><style>svg#freepik_stories-convertible-car:not(.animated) .animable {opacity: 0;}svg#freepik_stories-convertible-car.animated #freepik--background-complete--inject-2 {animation: 6s Infinite  linear wind;animation-delay: 0s;}svg#freepik_stories-convertible-car.animated #freepik--Sun--inject-2 {animation: 3s Infinite  linear heartbeat;animation-delay: 0s;}svg#freepik_stories-convertible-car.animated #freepik--Car--inject-2 {animation: 3s Infinite  linear floating;animation-delay: 0s;}svg#freepik_stories-convertible-car.animated #freepik--Character--inject-2 {animation: 3s Infinite  linear floating;animation-delay: 0s;}            @keyframes wind {                0% {                    transform: rotate( 0deg );                }                25% {                    transform: rotate( 1deg );                }                75% {                    transform: rotate( -1deg );                }            }                    @keyframes heartbeat {                0% {                    transform: scale(1);                }                10% {                    transform: scale(1.1);                }                30% {                    transform: scale(1);                }                40% {                    transform: scale(1);                }                50% {                    transform: scale(1.1);                }                60% {                    transform: scale(1);                }                100% {                    transform: scale(1);                }            }                    @keyframes floating {                0% {                    opacity: 1;                    transform: translateY(0px);                }                50% {                    transform: translateY(-10px);                }                100% {                    opacity: 1;                    transform: translateY(0px);                }            }        </style><g id="freepik--background-complete--inject-2" class="animable" style="transform-origin: 375px 137.225px;"><path d="M307.41,102.15H117.87s18.79-29.86,47.72-29.86,38,20.61,38,20.61,19.51-11.19,35.54-11.19,30,14.79,30,14.79S291.73,88.55,307.41,102.15Z" style="fill: rgb(235, 235, 235); transform-origin: 212.64px 87.22px;" id="elmrx1ydw183f" class="animable"></path><path d="M684.76,168.64H495.22s18.79-29.86,47.71-29.86,38,20.61,38,20.61,19.51-11.2,35.54-11.2,30,14.8,30,14.8S669.08,155,684.76,168.64Z" style="fill: rgb(235, 235, 235); transform-origin: 589.99px 153.71px;" id="elhvgsbsbi8l" class="animable"></path><path d="M237.52,218.83H148.94s19.8-16.68,35.39-16.68,20.2,11.12,20.2,11.12,11-5.18,21.2-4.26S237.52,218.83,237.52,218.83Z" style="fill: rgb(235, 235, 235); transform-origin: 193.23px 210.49px;" id="el2tlqh4hz9jb" class="animable"></path><path d="M470.68,186.63H382.1S401.89,170,417.49,170s20.2,11.12,20.2,11.12,11-5.18,21.2-4.26S470.68,186.63,470.68,186.63Z" style="fill: rgb(235, 235, 235); transform-origin: 426.39px 178.315px;" id="el879to7c1e" class="animable"></path><path d="M552.63,72.29H464.06s19.79-16.67,35.38-16.67,20.2,11.11,20.2,11.11,11-5.18,21.21-4.26S552.63,72.29,552.63,72.29Z" style="fill: rgb(235, 235, 235); transform-origin: 508.345px 63.955px;" id="el31xdj3ey71f" class="animable"></path><path d="M153.82,134.39H65.24S85,117.71,100.63,117.71s20.2,11.12,20.2,11.12,11-5.19,21.2-4.27S153.82,134.39,153.82,134.39Z" style="fill: rgb(235, 235, 235); transform-origin: 109.53px 126.05px;" id="elsz9f53pvfd" class="animable"></path><path d="M348,144.7H259.46S279.25,128,294.84,128s20.21,11.12,20.21,11.12,11-5.19,21.2-4.26A12.7,12.7,0,0,1,348,144.7Z" style="fill: rgb(235, 235, 235); transform-origin: 303.73px 136.35px;" id="els7xm180fwua" class="animable"></path></g><g id="freepik--Shadow--inject-2" class="animable" style="transform-origin: 375px 454.58px;"><ellipse cx="375" cy="454.58" rx="298.34" ry="22.47" style="fill: rgb(235, 235, 235); transform-origin: 375px 454.58px;" id="el6znfos6bpzc" class="animable"></ellipse></g><g id="freepik--Water--inject-2" class="animable" style="transform-origin: 375.385px 278.879px;"><g id="elppqefl8o4io"><g style="opacity: 0.4; transform-origin: 378.11px 279.191px;" class="animable"><path d="M184,234s156,3.38,155.6,9.29c-.2,3.38-123.8,5.2-123.8,10.55,0,3.07,133.28,4.22,133.28,7.6,0,2.12-56.2,4.65-56.2,6.83,0,3.31,82.7,4.86,83.23,6.55s-99.88,2.11-99.88,7.18c0,4.37,89.5,2.82,89.5,4.93s-36.34,3.95-36.34,6.06,81.27,2.53,84,4.65-105.62,2.95-105.62,5.49,81.09,3,81.09,4.93-35.08,5-35.08,5,49.94-2.72,49.94-5.39-25.06-3-25.6-3.38,75.37-3.53,75.37-8S384.2,291,384.2,290.16s64.62-2.39,64.62-6.19-79.3-3.38-79.3-4.23,102.93-4.12,102.93-6.23c0-3.91-82.34-4.75-82.34-6.73,0-3.52,113.31-1.18,113.31-7.24,0-3.66-89.57-4.52-89.51-8.25C414,246.36,566,246.22,566,240.59c0-4.22-64.89-6.6-64.89-6.6h-305" style="fill: rgb(70, 154, 194); transform-origin: 375px 273.525px;" id="el73d67tc0up" class="animable"></path><path d="M490.52,248.82s22.08,1.76,27.6,1.91,17.09-1.91,17.09-1.91Z" style="fill: rgb(70, 154, 194); transform-origin: 512.865px 249.779px;" id="elm0bj6c5fgpf" class="animable"></path><path d="M61.87,282s22.08,1.76,27.6,1.9,17.08-1.9,17.08-1.9Z" style="fill: rgb(70, 154, 194); transform-origin: 84.21px 282.953px;" id="eleikwmmuhss7" class="animable"></path><path d="M133.27,259.42s37.89,3.13,47.37,3.38S210,259.42,210,259.42Z" style="fill: rgb(70, 154, 194); transform-origin: 171.635px 261.116px;" id="elxw7h0qike5" class="animable"></path><path d="M511.75,260.21s37.9,3.13,47.37,3.38,29.32-3.38,29.32-3.38Z" style="fill: rgb(70, 154, 194); transform-origin: 550.095px 261.906px;" id="elxqn6dhdk5m" class="animable"></path><path d="M239.57,321s37.89,3.13,47.36,3.38S316.25,321,316.25,321Z" style="fill: rgb(70, 154, 194); transform-origin: 277.91px 322.696px;" id="el3k4ui57uqga" class="animable"></path><path d="M543.6,317.82S581.49,321,591,321.21s29.32-3.39,29.32-3.39Z" style="fill: rgb(70, 154, 194); transform-origin: 581.96px 319.519px;" id="elo9x5azf72pb" class="animable"></path><path d="M72.85,247.3s37.89,3.14,47.36,3.39,29.32-3.39,29.32-3.39Z" style="fill: rgb(70, 154, 194); transform-origin: 111.19px 249.001px;" id="el9q3o545cej" class="animable"></path><path d="M100.92,300.87s37.89,3.14,47.36,3.39,29.32-3.39,29.32-3.39Z" style="fill: rgb(70, 154, 194); transform-origin: 139.26px 302.571px;" id="el8zm7t3027s6" class="animable"></path><path d="M601.56,298.11s37.89,3.14,47.37,3.39,29.32-3.39,29.32-3.39Z" style="fill: rgb(70, 154, 194); transform-origin: 639.905px 299.811px;" id="elwafu3g90bc8" class="animable"></path><path d="M204.24,271.81s47,4.2,58.82,4.53,36.4-4.53,36.4-4.53Z" style="fill: rgb(70, 154, 194); transform-origin: 251.85px 274.083px;" id="el2uor28wajpi" class="animable"></path><path d="M521.29,291.28s-32.41,4.47-40.52,4.82-25.08-4.82-25.08-4.82Z" style="fill: rgb(70, 154, 194); transform-origin: 488.49px 293.699px;" id="elbnbvo9e13bu" class="animable"></path><path d="M694.35,256.17s-32.41,4.47-40.52,4.83-25.08-4.83-25.08-4.83Z" style="fill: rgb(70, 154, 194); transform-origin: 661.55px 258.594px;" id="el642rdm4qmns" class="animable"></path><path d="M413.64,237.07s22.08,3,27.6,3.19,17.08-3.19,17.08-3.19Z" style="fill: rgb(255, 255, 255); transform-origin: 435.98px 238.669px;" id="elurk42snwrd" class="animable"></path><path d="M306.39,247.12s-32.37,3.47-40.46,3.75-25-3.75-25-3.75Z" style="fill: rgb(255, 255, 255); transform-origin: 273.66px 249.002px;" id="elr2i93q2wlqe" class="animable"></path><path d="M277.91,288.46s11.56,1.83,15.61,1.9,17.17-1.9,17.17-1.9Z" style="fill: rgb(70, 154, 194); transform-origin: 294.3px 289.411px;" id="elzbc9xj79x1a" class="animable"></path><path d="M177.78,287.17s11.55,1.83,15.6,1.9,17.18-1.9,17.18-1.9Z" style="fill: rgb(70, 154, 194); transform-origin: 194.17px 288.121px;" id="elvzjvmiibxdi" class="animable"></path><path d="M323,312.3s11.56,1.83,15.61,1.91,17.17-1.91,17.17-1.91Z" style="fill: rgb(70, 154, 194); transform-origin: 339.39px 313.256px;" id="el16bwvzyicq3" class="animable"></path><path d="M94.8,312.83s11.55,1.83,15.6,1.9,17.18-1.9,17.18-1.9Z" style="fill: rgb(70, 154, 194); transform-origin: 111.19px 313.781px;" id="ell9l4z6re25n" class="animable"></path><path d="M526.2,295.17s11.56,1.83,15.61,1.9,17.17-1.9,17.17-1.9Z" style="fill: rgb(70, 154, 194); transform-origin: 542.59px 296.121px;" id="ellg3ymd9m14" class="animable"></path><path d="M617.28,268.87s11.56,1.83,15.61,1.91,17.18-1.91,17.18-1.91Z" style="fill: rgb(70, 154, 194); transform-origin: 633.675px 269.826px;" id="el71elnp9cixj" class="animable"></path><path d="M648.73,311.88s11.56,1.83,15.61,1.9,17.17-1.9,17.17-1.9Z" style="fill: rgb(70, 154, 194); transform-origin: 665.12px 312.831px;" id="elye7lsvht9o9" class="animable"></path><path d="M394.53,304s6,1.83,8.05,1.9,8.85-1.9,8.85-1.9Z" style="fill: rgb(70, 154, 194); transform-origin: 402.98px 304.951px;" id="elhmghyabu9pi" class="animable"></path><path d="M445.64,278s8.37,1.25,11.3,1.3,12.43-1.3,12.43-1.3Z" style="fill: rgb(70, 154, 194); transform-origin: 457.505px 278.651px;" id="elu5wvl1quwbd" class="animable"></path><path d="M346.16,250s-9.12,1.76-11.4,1.91-19.1-1.91-19.1-1.91Z" style="fill: rgb(255, 255, 255); transform-origin: 330.91px 250.959px;" id="el1iydnkyssul" class="animable"></path><path d="M401.2,245.89s-6.17,1.76-7.71,1.9-12.92-1.9-12.92-1.9Z" style="fill: rgb(255, 255, 255); transform-origin: 390.885px 246.843px;" id="elelnpbe0t9j9" class="animable"></path></g></g><polygon points="400.69 256.55 404.82 257.31 405.75 261.67 406.67 257.31 410.81 256.54 406.69 255.54 405.75 251.42 404.81 255.54 400.69 256.55" style="fill: rgb(255, 255, 255); transform-origin: 405.75px 256.545px;" id="elp2fi2zgkttq" class="animable"></polygon><polygon points="348.26 277.75 352.39 278.51 353.31 282.87 354.24 278.51 358.37 277.74 354.26 276.74 353.31 272.62 352.37 276.74 348.26 277.75" style="fill: rgb(255, 255, 255); transform-origin: 353.315px 277.745px;" id="elkmqaq4ob3hc" class="animable"></polygon><path d="M351,265.3a.43.43,0,0,1,0,.85A.43.43,0,0,1,351,265.3Z" style="fill: rgb(255, 255, 255); transform-origin: 351px 265.725px;" id="eloo5sd12u4a" class="animable"></path><path d="M387.23,263.21a.43.43,0,0,1,0,.85A.43.43,0,0,1,387.23,263.21Z" style="fill: rgb(255, 255, 255); transform-origin: 387.23px 263.635px;" id="el3ifp8sqxwr6" class="animable"></path><path d="M401.2,290.09a.43.43,0,0,1,0,.85A.43.43,0,0,1,401.2,290.09Z" style="fill: rgb(255, 255, 255); transform-origin: 401.2px 290.515px;" id="elh6n3uhu2zx4" class="animable"></path><path d="M346.16,305.49a.43.43,0,0,1,0,.85A.43.43,0,0,1,346.16,305.49Z" style="fill: rgb(255, 255, 255); transform-origin: 346.16px 305.915px;" id="elv3myr8dpa4r" class="animable"></path><path d="M446.29,269.91a.43.43,0,0,1,0,.85A.43.43,0,0,1,446.29,269.91Z" style="fill: rgb(255, 255, 255); transform-origin: 446.29px 270.335px;" id="ele31x4ka35r" class="animable"></path><path d="M253.13,254.3a.43.43,0,0,1,0,.85A.43.43,0,0,1,253.13,254.3Z" style="fill: rgb(255, 255, 255); transform-origin: 253.13px 254.725px;" id="elyidivin8t7e" class="animable"></path><path d="M490.93,255.47a.43.43,0,0,1,0,.85A.43.43,0,0,1,490.93,255.47Z" style="fill: rgb(255, 255, 255); transform-origin: 490.93px 255.895px;" id="elhixifobwok9" class="animable"></path><path d="M413.64,257.78a.82.82,0,0,1,0,1.63A.82.82,0,0,1,413.64,257.78Z" style="fill: rgb(255, 255, 255); transform-origin: 413.64px 258.595px;" id="elks9yzxi8f5" class="animable"></path><path d="M419.07,301.62a.82.82,0,0,1,0,1.63A.82.82,0,0,1,419.07,301.62Z" style="fill: rgb(255, 255, 255); transform-origin: 419.07px 302.435px;" id="elh5bg9oq4it" class="animable"></path><polygon points="273.63 283.13 276.26 283.62 276.85 286.39 277.43 283.62 280.06 283.13 277.44 282.49 276.85 279.87 276.25 282.49 273.63 283.13" style="fill: rgb(255, 255, 255); transform-origin: 276.845px 283.13px;" id="el8zns9rbkbzj" class="animable"></polygon><polygon points="449.25 273.6 451.88 274.08 452.47 276.86 453.06 274.08 455.69 273.6 453.07 272.96 452.47 270.34 451.87 272.96 449.25 273.6" style="fill: rgb(255, 255, 255); transform-origin: 452.47px 273.6px;" id="elaj6xhim46b5" class="animable"></polygon><polygon points="302.65 262.95 304.12 263.22 304.44 264.77 304.77 263.22 306.24 262.95 304.78 262.59 304.44 261.13 304.11 262.59 302.65 262.95" style="fill: rgb(255, 255, 255); transform-origin: 304.445px 262.95px;" id="elxaby5m15bwl" class="animable"></polygon><path d="M313,264.55a.82.82,0,0,1,0,1.64A.82.82,0,0,1,313,264.55Z" style="fill: rgb(255, 255, 255); transform-origin: 313px 265.37px;" id="eldnxbf0s9eqg" class="animable"></path><polygon points="378.77 292.34 380.24 292.61 380.57 294.16 380.9 292.61 382.37 292.34 380.9 291.98 380.57 290.52 380.24 291.98 378.77 292.34" style="fill: rgb(255, 255, 255); transform-origin: 380.57px 292.34px;" id="el0p6ybzftflf" class="animable"></polygon><polygon points="483.33 256.2 484.8 256.47 485.13 258.02 485.46 256.47 486.93 256.19 485.46 255.84 485.13 254.37 484.79 255.84 483.33 256.2" style="fill: rgb(255, 255, 255); transform-origin: 485.13px 256.195px;" id="elt8t595zrms" class="animable"></polygon><polygon points="376.97 256.54 378.44 256.82 378.77 258.37 379.1 256.82 380.57 256.54 379.11 256.19 378.77 254.72 378.44 256.19 376.97 256.54" style="fill: rgb(255, 255, 255); transform-origin: 378.77px 256.545px;" id="elpyoxk1wvig" class="animable"></polygon><path d="M695.08,233.83c-204.82.61-434.57.61-639.39,0,204.82-.62,434.57-.62,639.39,0Z" style="fill: rgb(38, 50, 56); transform-origin: 375.385px 233.826px;" id="eloiegln6ytwd" class="animable"></path></g><g id="freepik--Floor--inject-2" class="animable" style="transform-origin: 376.815px 421.706px;"><path d="M697.94,421.71c-205.74.61-436.52.61-642.25,0,205.73-.62,436.52-.62,642.25,0Z" style="fill: rgb(38, 50, 56); transform-origin: 376.815px 421.706px;" id="elh9pb1mscch7" class="animable"></path></g><g id="freepik--Sun--inject-2" class="animable" style="transform-origin: 595.33px 88.64px;"><g id="elegrwpwxqlc4"><circle cx="595.33" cy="88.64" r="35.9" style="fill: rgb(70, 154, 194); opacity: 0.3; transform-origin: 595.33px 88.64px; transform: rotate(-86.1deg);" class="animable"></circle></g><g id="eluzoy8sfqy3d"><path d="M607,60.19A30.75,30.75,0,1,1,566.88,77,30.74,30.74,0,0,1,607,60.19Z" style="fill: rgb(70, 154, 194); opacity: 0.5; transform-origin: 595.34px 88.6422px;" class="animable"></path></g></g><g id="freepik--Car--inject-2" class="animable" style="transform-origin: 375.001px 340.706px;"><path d="M100.22,394.12l54.65,8.26s-23.65-76.28-44.39-76.95S100.22,394.12,100.22,394.12Z" style="fill: rgb(70, 154, 194); transform-origin: 126.221px 363.903px;" id="elb4jwhotp4ze" class="animable"></path><g id="el6itbs6r4218"><path d="M100.22,394.12l54.65,8.26s-23.65-76.28-44.39-76.95S100.22,394.12,100.22,394.12Z" style="opacity: 0.5; transform-origin: 126.221px 363.903px;" class="animable"></path></g><path d="M282.9,431.37l83.36-7S329.1,313.29,298,320.45C254.14,330.54,282.9,431.37,282.9,431.37Z" style="fill: rgb(70, 154, 194); transform-origin: 319.951px 375.744px;" id="el0o26g6hf5ap" class="animable"></path><g id="elm9fsts9ea1d"><g style="opacity: 0.5; transform-origin: 319.951px 375.744px;" class="animable"><path d="M282.9,431.37l83.36-7S329.1,313.29,298,320.45C254.14,330.54,282.9,431.37,282.9,431.37Z" id="el9wpkl3safo4" class="animable" style="transform-origin: 319.951px 375.744px;"></path></g></g><path d="M489.3,269.05l3.05-1.1s0-11.45,0-11.72,5.81-3.59,7.36-3.86S516,253.9,518.18,256s-1.13,13.91-2.11,15.05-15.28,1.79-16,1.79-10.78-1.26-10.78-1.26Z" style="fill: rgb(70, 154, 194); transform-origin: 504.1px 262.592px;" id="el2w1qneud1er" class="animable"></path><g id="elyc4clpu84ig"><path d="M517.68,260.94a52.57,52.57,0,0,1-23.38,0,91.94,91.94,0,0,1,23.38,0Z" style="opacity: 0.2; transform-origin: 505.99px 261.225px;" class="animable"></path></g><g id="elncoeapsr2el"><path d="M489.3,269.05v2.56s10.08,1.27,10.79,1.27,15-.67,16-1.81c.75-.85,2.83-7.89,2.83-12.14v-.09c-.46,1.73-8.23,7.57-14.27,8.64s-12.26-4.86-12.26-4.86c0,2.74,0,5.33,0,5.33Z" style="opacity: 0.1; transform-origin: 504.11px 265.86px;" class="animable"></path></g><g id="elt1ryd3a7o7"><path d="M492.35,256.23c2.86,0,20.34.78,25.13-.68-3.62-1.91-16.34-3.42-17.77-3.18A31.08,31.08,0,0,0,492.35,256.23Z" style="fill: rgb(255, 255, 255); opacity: 0.4; transform-origin: 504.915px 254.392px;" class="animable"></path></g><path d="M268.07,277.64s2.16-3.29,3.57-3.54,6.32-.66,6.32-.66-1.08-1.92-.83-6.16,3.24-20.36,5.65-21.78,15.71-3.23,19.62-.95,8.15,22.57,8.15,24.56a6.58,6.58,0,0,1-1.5,3.74s5.07.67,6.4,1.5,5.24,7.4,5.24,7.4Z" style="fill: rgb(199, 199, 199); transform-origin: 294.38px 262.608px;" id="elsfbyylxasjs" class="animable"></path><path d="M287.6,273.77s-5.24,1.91-5.57,2.75-.68,1.83-.8,2.15l-13.17-1s2.16-3.29,3.58-3.53,6.32-.67,6.32-.67-1.08-1.91-.84-6.15,3.25-20.37,5.66-21.78a19.48,19.48,0,0,1,5.4-1.4c-3.66,1.33-4.74,10.58-5.15,14.7-.36,3.53-1,10.35.83,12.8C284.58,272.57,287.6,273.77,287.6,273.77Z" style="fill: rgb(166, 166, 166); transform-origin: 278.12px 261.405px;" id="el3doa2scj8kx" class="animable"></path><path d="M186.71,277.64s2.16-3.29,3.57-3.54,6.32-.66,6.32-.66-1.08-1.92-.83-6.16,3.24-20.36,5.65-21.78,15.72-3.23,19.62-.95,8.15,22.57,8.15,24.56a6.6,6.6,0,0,1-1.49,3.74s5.07.67,6.4,1.5,5.23,7.4,5.23,7.4Z" style="fill: rgb(199, 199, 199); transform-origin: 213.02px 262.608px;" id="eldq9gtgrpxu" class="animable"></path><path d="M206.25,273.77s-5.24,1.91-5.57,2.75-.68,1.83-.8,2.15l-13.17-1s2.16-3.29,3.58-3.53,6.32-.67,6.32-.67-1.08-1.91-.84-6.15,3.25-20.37,5.66-21.78a19.48,19.48,0,0,1,5.4-1.4c-3.66,1.33-4.74,10.58-5.15,14.7-.36,3.53-1,10.35.83,12.8C203.23,272.57,206.25,273.77,206.25,273.77Z" style="fill: rgb(166, 166, 166); transform-origin: 196.77px 261.405px;" id="el10kyklizm83e" class="animable"></path><path d="M223.83,282.83s2.49-3.79,4.12-4.07,7.27-.77,7.27-.77-1.24-2.2-.95-7.09,3.73-23.46,6.51-25.09,18.1-3.72,22.6-1.1,9.39,26,9.39,28.3a7.6,7.6,0,0,1-1.73,4.31s5.84.76,7.38,1.72,6,8.53,6,8.53Z" style="fill: rgb(219, 219, 219); transform-origin: 254.125px 265.519px;" id="elxgx3kkv3va" class="animable"></path><path d="M246.33,278.37s-6,2.2-6.41,3.17c-.33.8-.79,2.11-.92,2.47l-15.18-1.18s2.49-3.79,4.13-4.07,7.28-.77,7.28-.77-1.25-2.2-1-7.09,3.74-23.46,6.52-25.09A22.56,22.56,0,0,1,247,244.2c-4.21,1.53-5.46,12.19-5.93,16.94-.42,4.06-1.15,11.92,1,14.74C242.85,277,246.33,278.37,246.33,278.37Z" style="fill: rgb(199, 199, 199); transform-origin: 235.41px 264.105px;" id="elmpsxnw8alrp" class="animable"></path><path d="M334.43,282.83s2.49-3.79,4.12-4.07,7.28-.77,7.28-.77-1.24-2.2-1-7.09,3.74-23.46,6.52-25.09,18.1-3.72,22.6-1.1,9.38,26,9.38,28.3a7.62,7.62,0,0,1-1.72,4.31s5.84.76,7.37,1.72,6,8.53,6,8.53Z" style="fill: rgb(219, 219, 219); transform-origin: 364.705px 265.519px;" id="el2c8kt2y9l31" class="animable"></path><path d="M356.94,278.37s-6,2.2-6.42,3.17c-.32.8-.78,2.11-.92,2.47l-15.17-1.18s2.49-3.79,4.12-4.07,7.29-.77,7.29-.77-1.25-2.2-1-7.09,3.74-23.46,6.52-25.09a22.45,22.45,0,0,1,6.22-1.61c-4.22,1.53-5.46,12.19-5.93,16.94-.42,4.06-1.16,11.92.95,14.74C353.46,277,356.94,278.37,356.94,278.37Z" style="fill: rgb(199, 199, 199); transform-origin: 346.005px 264.105px;" id="elkl8rivb5g5" class="animable"></path><path d="M164.23,389.84c.2,27.49-7.46,50.23-17.1,50.78a5.43,5.43,0,0,1-.7,0H117.91V341h28.52C156.07,340.49,164,362.34,164.23,389.84Z" style="fill: rgb(38, 50, 56); transform-origin: 141.072px 390.811px;" id="elapln7ev28mm" class="animable"></path><path d="M164.23,389.84c.2,27.49-7.46,50.23-17.1,50.78a5.43,5.43,0,0,1-.7,0H117.91V341h28.52C156.07,340.49,164,362.34,164.23,389.84Z" id="elfurhu6gdboh" class="animable" style="transform-origin: 141.072px 390.811px;"></path><ellipse cx="117.56" cy="390.82" rx="17.46" ry="49.8" style="fill: rgb(38, 50, 56); transform-origin: 117.56px 390.82px;" id="eld1kzoexi946" class="animable"></ellipse><path d="M103,391.85c.16,22.9,6.77,40.71,14.8,40.25s14.45-19,14.29-41.91-6.8-41.11-14.84-40.65S102.86,368.94,103,391.85Z" style="fill: rgb(55, 71, 79); transform-origin: 117.545px 390.82px;" id="elzu29aaivolr" class="animable"></path><ellipse cx="117.56" cy="390.82" rx="12.75" ry="36.36" style="fill: rgb(219, 219, 219); transform-origin: 117.56px 390.82px;" id="elzrcatdkr50c" class="animable"></ellipse><ellipse cx="117.56" cy="390.82" rx="11.75" ry="33.53" style="fill: rgb(166, 166, 166); transform-origin: 117.56px 390.82px;" id="elor8khhpr3le" class="animable"></ellipse><path d="M115.66,382.52l3.69-.21c-1.28-5.06,2.94-23.21,2.94-23.21l-2-1.75c-1.25,6.4-1.88,8.29-2.94,8.35s-1.72-1.76-3.06-8l-1.93,2S116.87,377.32,115.66,382.52Z" style="fill: rgb(219, 219, 219); transform-origin: 117.325px 369.935px;" id="el2laz9b2icao" class="animable"></path><path d="M119.66,382.93l1.21,9.95c1.3-5,8.65.79,8.65.79l0-5.84c-2.52-1.41-3.34-2.54-3.69-5.41s0-5.21,1.72-10.77L126.28,367S121.77,384.61,119.66,382.93Z" style="fill: rgb(219, 219, 219); transform-origin: 124.59px 380.335px;" id="elpijc9px44r" class="animable"></path><path d="M120.76,393.92l-2.94,6.36c2.08,2,2.41,23.7,2.41,23.7l1.94-1.86c-.31-7.27-.18-9.86.66-11.69s1.76-1.46,4.13,1.35l1.15-4.82S120.86,400.16,120.76,393.92Z" style="fill: rgb(219, 219, 219); transform-origin: 122.965px 408.95px;" id="elvsdvu25w3j" class="animable"></path><path d="M117.44,400.3l-3-6c0,6.25-7.16,13.87-7.16,13.87l1.22,4.68c2.33-3.08,3.23-3.55,4.1-1.81s1,4.3.83,11.6l2,1.64S115.39,402.49,117.44,400.3Z" style="fill: rgb(219, 219, 219); transform-origin: 112.36px 409.29px;" id="eluhijzcbf7a" class="animable"></path><path d="M114.29,393.26l1.07-10.08c-2.09,1.91-6.84-15.14-6.84-15.14l-1.18,4.77c1.74,5.36,2.18,7.66,1.87,10.56s-1.12,4.12-3.61,5.83l.06,5.82S112.92,388.37,114.29,393.26Z" style="fill: rgb(219, 219, 219); transform-origin: 110.48px 381.53px;" id="el9vxo6erl5in" class="animable"></path><path d="M114.15,390.78c0,5.38,1.6,9.65,3.48,9.54s3.38-4.55,3.34-9.93-1.59-9.64-3.48-9.53S114.11,385.41,114.15,390.78Z" style="fill: rgb(219, 219, 219); transform-origin: 117.56px 390.59px;" id="el1z5nq4578hm" class="animable"></path><path d="M383.3,401.07c.33,36.53-12.5,66.74-28.64,67.48a11.52,11.52,0,0,1-1.18,0v0H313.71V336.22h39.77C369.63,335.49,383,364.52,383.3,401.07Z" style="fill: rgb(38, 50, 56); transform-origin: 348.508px 402.386px;" id="eladz11qjxins" class="animable"></path><path d="M383.3,401.07c.33,36.53-12.5,66.74-28.64,67.48a11.52,11.52,0,0,1-1.18,0v0H313.71V336.22h39.77C369.63,335.49,383,364.52,383.3,401.07Z" id="eli4rmxabpvp" class="animable" style="transform-origin: 348.508px 402.386px;"></path><ellipse cx="313.14" cy="402.38" rx="29.24" ry="66.17" style="fill: rgb(38, 50, 56); transform-origin: 313.14px 402.38px;" id="el7bsbdr8edok" class="animable"></ellipse><path d="M288.78,403.74c.26,30.44,11.34,54.1,24.79,53.5s24.19-25.26,23.92-55.7-11.39-54.63-24.84-54S288.51,373.3,288.78,403.74Z" style="fill: rgb(55, 71, 79); transform-origin: 313.135px 402.39px;" id="elw8v8xr0me3" class="animable"></path><ellipse cx="313.14" cy="402.38" rx="21.35" ry="48.32" style="fill: rgb(219, 219, 219); transform-origin: 313.14px 402.38px;" id="elulcioexf09a" class="animable"></ellipse><path d="M293.45,403.26c.22,24.6,9.21,44.15,20.08,43.66s19.51-20.83,19.29-45.43-9.21-44.15-20.08-43.66S293.23,378.66,293.45,403.26Z" style="fill: rgb(166, 166, 166); transform-origin: 313.135px 402.375px;" id="elr3zrmu61cs" class="animable"></path><path d="M310,391.35l6.18-.28C314,384.34,321,360.22,321,360.22l-3.27-2.32c-2.09,8.5-3.15,11-4.93,11.09s-2.88-2.33-5.12-10.64L304.49,361S312,384.43,310,391.35Z" style="fill: rgb(219, 219, 219); transform-origin: 312.745px 374.625px;" id="elpz0zvsfwjc" class="animable"></path><path d="M316.65,391.89l2,13.22c2.17-6.69,14.49,1.05,14.49,1.05l0-7.76c-4.22-1.87-5.6-3.38-6.18-7.18s.09-6.93,2.88-14.32l-2.09-6.13S320.19,394.12,316.65,391.89Z" style="fill: rgb(219, 219, 219); transform-origin: 324.895px 388.465px;" id="eljhu22xzvy" class="animable"></path><path d="M318.5,406.5,313.57,415c3.48,2.59,4,31.49,4,31.49l3.25-2.48c-.51-9.65-.31-13.09,1.11-15.52s2.94-1.95,6.91,1.78l1.93-6.39S318.65,414.79,318.5,406.5Z" style="fill: rgb(219, 219, 219); transform-origin: 322.17px 426.495px;" id="elsrna8e5qu5g" class="animable"></path><path d="M312.93,415l-5.08-8c0,8.3-12,18.42-12,18.42l2.05,6.23c3.9-4.1,5.41-4.72,6.87-2.42s1.72,5.72,1.38,15.43l3.29,2.17S309.49,417.88,312.93,415Z" style="fill: rgb(219, 219, 219); transform-origin: 304.39px 426.915px;" id="eljtdvc0vny4" class="animable"></path><path d="M307.64,405.61l1.8-13.39C306,394.76,298,372.11,298,372.11l-2,6.33c2.93,7.12,3.66,10.18,3.14,14s-1.87,5.48-6.05,7.75l.1,7.74S305.36,399.11,307.64,405.61Z" style="fill: rgb(219, 219, 219); transform-origin: 301.265px 390.02px;" id="elqe6zq0hfk6" class="animable"></path><path d="M307.42,402.32c.06,7.14,2.67,12.82,5.83,12.68s5.66-6.05,5.6-13.19S316.17,389,313,389.14,307.36,395.18,307.42,402.32Z" style="fill: rgb(219, 219, 219); transform-origin: 313.135px 402.07px;" id="el907tt754hxq" class="animable"></path><path d="M651.89,388.07c.33,36.53-12.5,66.74-28.65,67.48a11.32,11.32,0,0,1-1.17,0v0H582.3V323.22h39.77C638.22,322.49,651.57,351.52,651.89,388.07Z" style="fill: rgb(38, 50, 56); transform-origin: 617.098px 389.386px;" id="eln0rmauk23o" class="animable"></path><path d="M651.89,388.07c.33,36.53-12.5,66.74-28.65,67.48a11.32,11.32,0,0,1-1.17,0v0H582.3V323.22h39.77C638.22,322.49,651.57,351.52,651.89,388.07Z" id="elzbulbg96or" class="animable" style="transform-origin: 617.098px 389.386px;"></path><ellipse cx="581.72" cy="389.38" rx="29.24" ry="66.17" style="fill: rgb(38, 50, 56); transform-origin: 581.72px 389.38px;" id="elqi6fq8y0qg" class="animable"></ellipse><path d="M557.36,390.74c.27,30.44,11.34,54.1,24.8,53.5s24.19-25.26,23.92-55.7-11.39-54.63-24.84-54S557.09,360.3,557.36,390.74Z" style="fill: rgb(55, 71, 79); transform-origin: 581.72px 389.39px;" id="els4rm3oloqv" class="animable"></path><ellipse cx="581.72" cy="389.38" rx="21.35" ry="48.32" style="fill: rgb(219, 219, 219); transform-origin: 581.72px 389.38px;" id="elzr7u9qxp5hs" class="animable"></ellipse><ellipse cx="581.72" cy="389.38" rx="19.69" ry="44.55" style="fill: rgb(166, 166, 166); transform-origin: 581.72px 389.38px;" id="eltusvn8i5k3f" class="animable"></ellipse><path d="M578.53,378.35l6.19-.28c-2.15-6.73,4.91-30.85,4.91-30.85l-3.27-2.32c-2.09,8.5-3.15,11-4.93,11.09s-2.88-2.33-5.13-10.64L573.08,348S580.56,371.43,578.53,378.35Z" style="fill: rgb(219, 219, 219); transform-origin: 581.355px 361.625px;" id="elzr8ey9rtzn8" class="animable"></path><path d="M585.24,378.89l2,13.22c2.16-6.69,14.48,1.05,14.48,1.05l0-7.76c-4.22-1.87-5.61-3.38-6.19-7.18s.09-6.93,2.89-14.32l-2.1-6.13S588.77,381.12,585.24,378.89Z" style="fill: rgb(219, 219, 219); transform-origin: 593.48px 375.465px;" id="elch1cuzkoys7" class="animable"></path><path d="M587.08,393.5,582.15,402c3.49,2.59,4,31.49,4,31.49l3.25-2.48c-.52-9.65-.31-13.09,1.11-15.52s2.94-1.95,6.91,1.78l1.93-6.39S587.24,401.79,587.08,393.5Z" style="fill: rgb(219, 219, 219); transform-origin: 590.75px 413.495px;" id="el43ndyxqohuu" class="animable"></path><path d="M581.51,402l-5.07-8c0,8.3-12,18.42-12,18.42l2,6.23c3.89-4.1,5.4-4.72,6.86-2.42s1.73,5.72,1.39,15.43l3.28,2.17S578.08,404.88,581.51,402Z" style="fill: rgb(219, 219, 219); transform-origin: 572.975px 413.915px;" id="elyhvl0x2pyj" class="animable"></path><path d="M576.23,392.61,578,379.22c-3.49,2.54-11.44-20.11-11.44-20.11l-2,6.33c2.93,7.12,3.65,10.18,3.14,14s-1.87,5.48-6.06,7.75l.1,7.74S574,386.11,576.23,392.61Z" style="fill: rgb(219, 219, 219); transform-origin: 569.82px 377.02px;" id="elhnrvna2nett" class="animable"></path><path d="M576,389.32c.07,7.14,2.68,12.82,5.83,12.68s5.67-6.05,5.6-13.19-2.67-12.82-5.83-12.67S575.94,382.18,576,389.32Z" style="fill: rgb(219, 219, 219); transform-origin: 581.715px 389.07px;" id="elf7kmzd1s3gp" class="animable"></path><path d="M664.82,345.19c-.66-3.83-13.3-20.23-13.3-20.23a44.66,44.66,0,0,0-9.64-18.35c-7.48-8.31-28.6-16.29-28.6-16.29s-7.48-7.32-22.95-11.14-84.29-11-84.29-11c-26.28-22.94-74.83-48.71-77.32-49s-23.94-6-79.81-6.32-96.44,5.33-97.43,5.82-11,8.32-10.81,9S257.46,283,257.46,283l-108.41-7.81s-7.65.49-8.64.66-2.5,2.55-2.5,2.55c-18.18,3.1-38.57,20.17-41.23,23.94s-7.32,24.39-7.76,25.5-3.33,14-3.77,17.07S91.36,387,92,388.14s8.2,6,8.2,6c-1.77-9.53-4.87-60.74,8.65-61,22.17-.36,28.82,80.25,28.82,80.25l145.21,18c-6.43-19.95-13.08-105.93,20.17-105.93s48.56,107.92,50.11,108.15,43.45,4.87,50.32,4.43,251.18-23,252.84-23.5,4.49-6.82,4.83-8-.67-7.48-.67-7.48S665.49,349,664.82,345.19Zm-162.66-77c-1.33.22-222.14,6.65-225.25,6.82s-22.68-54.64-21.45-55.15c1.61-.66,35.74-5.3,84.86-5.76,42-.39,87.35,5,88.84,5.82C464.63,239.63,503.49,268,502.16,268.2Z" style="fill: rgb(70, 154, 194); transform-origin: 375.005px 325.458px;" id="ellepuhk5afxe" class="animable"></path><path d="M664.82,345.19c-.66-3.83-13.3-20.23-13.3-20.23a44.66,44.66,0,0,0-9.64-18.35c-7.48-8.31-28.6-16.29-28.6-16.29s-7.48-7.32-22.95-11.14c-11.33-2.81-51.31-7.4-71.87-9.65C511,268.71,506,268.2,506,268.2c-26.28-22.94-74.83-48.71-77.32-49s-23.94-6-79.81-6.32-96.44,5.33-97.43,5.82c-.61.31-4.54,3.32-7.49,5.79-1.9,1.58-3.39,2.93-3.32,3.19.16.67,16.79,55.37,16.79,55.37l-108.41-7.81s-7.65.49-8.64.66-2.5,2.55-2.5,2.55c-18.18,3.1-38.57,20.17-41.23,23.94s-7.32,24.39-7.76,25.5-3.33,14-3.77,17.07S91.36,387,92,388.14s8.2,6,8.2,6c-1.77-9.53-4.87-60.74,8.65-61,22.17-.36,28.82,80.25,28.82,80.25l145.21,18c-6.43-19.95-13.08-105.93,20.17-105.93s48.56,107.92,50.11,108.15,43.45,4.87,50.32,4.43,251.18-23,252.84-23.5,4.49-6.82,4.83-8-.67-7.48-.67-7.48S665.49,349,664.82,345.19ZM276.91,275c-2.15.12-12.2-26.15-17.77-42.47-2.47-7.24-4.06-12.52-3.68-12.68,1.61-.66,35.74-5.3,84.86-5.76,42-.39,87.35,5,88.84,5.82,35.47,19.7,74.33,48.05,73,48.27-.26,0-9,.33-23,.75C422.34,270.71,279.41,274.88,276.91,275Z" style="fill: rgb(70, 154, 194); transform-origin: 374.985px 325.468px;" id="el9pl0qgnml3m" class="animable"></path><path d="M664.81,345.19a11.93,11.93,0,0,0-1.44-3.23c-3.46-6.1-11.86-17-11.86-17a44.66,44.66,0,0,0-9.64-18.35c-7.48-8.31-28.6-16.29-28.6-16.29s-7.48-7.32-22.95-11.14c-11.33-2.81-51.31-7.4-71.87-9.65C511,268.71,506,268.2,506,268.2c-26.28-22.94-74.83-48.71-77.32-49s-23.94-6-79.81-6.32-96.44,5.33-97.43,5.82c-.61.31-4.54,3.32-7.49,5.79-1.9,1.58-3.39,2.93-3.32,3.19.16.67,16.79,55.37,16.79,55.37L149,275.19s-7.65.49-8.64.66-2.5,2.55-2.5,2.55c-18.18,3.1-38.57,20.17-41.23,23.94-.91,1.3-2.06,4.58-3.2,8.37-2.16,7.26-4.27,16.4-4.56,17.13-.44,1.11-3.33,14-3.77,17.07S91.35,387,92,388.14s8.2,6,8.2,6c-1.39-7.48-3.6-40.62,2.05-54.65,1.55-3.85,3.69-6.26,6.6-6.31,9-.15,15.41,13,19.88,28.66,6.58,23,8.94,51.59,8.94,51.59l145.21,18c-4.29-13.32-8.68-56.08-1.24-83,3.71-13.41,10.36-22.9,21.41-22.9,11.8,0,21.34,13.59,28.81,31.14,13.58,31.89,20.3,76.86,21.3,77,1.55.22,43.45,4.87,50.32,4.43s251.18-23,252.84-23.5,4.49-6.82,4.83-8-.67-7.48-.67-7.48S665.48,349,664.81,345.19Zm-162.66-77c-.26,0-9,.33-23,.75-56.86,1.76-199.79,5.93-202.29,6.07-2.15.12-12.2-26.15-17.77-42.47-2.47-7.24-4.06-12.52-3.68-12.68,1.61-.66,35.74-5.3,84.86-5.76,42-.39,87.35,5,88.84,5.82C464.62,239.63,503.48,268,502.15,268.2Z" style="fill: rgb(70, 154, 194); transform-origin: 374.976px 325.498px;" id="elfcxhkkgai44" class="animable"></path><path d="M474.11,330.05c-.35-2.61-74.66-15-89.79-15.8s-34.42-1-37.08-.66-13.7,5.32-12.75,5.82,24.73,16.46,34.54,19.12,81.63,4,86,3.66S474.44,332.54,474.11,330.05Z" style="fill: rgb(255, 255, 255); transform-origin: 404.274px 327.837px;" id="el0xijfcg84sy" class="animable"></path><path d="M347.38,320.94c.86.47,22.44,15.36,31.35,17.84,7.81,2.18,59,3.4,74,3.46-13.06.06-74.7-1.26-83.74-3.71-9.81-2.66-33.59-18.62-34.54-19.12s10.09-5.49,12.75-5.82,21.95-.17,37.08.66,89.44,13.19,89.79,15.8a1.1,1.1,0,0,1-.15.62c-3.53-2.8-68-13.78-81.35-14.54-13.73-.77-31.24-.93-33.65-.62S346.52,320.47,347.38,320.94Z" style="fill: rgb(235, 235, 235); transform-origin: 404.232px 327.836px;" id="eli6uut1mewh" class="animable"></path><g id="elp0yiedbuutf"><g style="opacity: 0.1; transform-origin: 375.026px 374.39px;" class="animable"><path d="M102.27,339.47c-5.65,14-3.44,47.17-2,54.65,0,0-7.53-4.87-8.2-6S84.71,348,85.15,344.91s3.33-16,3.77-17.07c.29-.73,2.4-9.87,4.56-17.13A181.9,181.9,0,0,0,102.27,339.47Z" id="elc8fggulur4" class="animable" style="transform-origin: 93.6996px 352.415px;"></path><path d="M282.9,431.37l-145.21-18s-2.36-28.55-8.94-51.59a7.37,7.37,0,0,0,1.56-1.67s10.1-35.42,11.93-37.08,119.05,11.15,120.38,11.06,18.5,13.78,19,14.21C274.22,375.29,278.61,418.05,282.9,431.37Z" id="elon9neg7cfa" class="animable" style="transform-origin: 205.825px 377.126px;"></path><path d="M660.5,399.06s1,6.32.67,7.48-3.16,7.48-4.83,8-246,23.06-252.84,23.5-48.77-4.21-50.32-4.43c-1-.15-7.72-45.12-21.3-77,5.15.79,8.76,1.29,9.38,1.25,2.66-.17,31.27,9.47,31.27,9.47s1.69-7.32,6.49-8.65,96.75,3.83,103.24,3,19.93-28.43,19.93-28.43L610,328.56s11.31,19.45,15.14,21.78,18.23-3.16,25.66-5.65c6.43-2.17,10.7-3.12,12.63-2.73a11.93,11.93,0,0,1,1.44,3.23C665.49,349,660.5,399.06,660.5,399.06Z" id="el9qiuimo5kbi" class="animable" style="transform-origin: 498.402px 383.315px;"></path></g></g><path d="M613.61,322.4c.41,1.52,8.81,10.64,10.47,10.81s22.12-4.49,23.28-5.4a9.7,9.7,0,0,0,3.33-5.75c.5-2.82-2.33-13.62-5-15.95s-9.13-4-9.13-4-6.83,7.33-11.32,10.49S613.36,321.49,613.61,322.4Z" style="fill: rgb(255, 255, 255); transform-origin: 632.176px 317.662px;" id="el86dmctzl2qb" class="animable"></path><path d="M650.69,322.06a9.7,9.7,0,0,1-3.33,5.75c-1.16.91-21.61,5.57-23.28,5.4a1.31,1.31,0,0,1-.34-.11c4.18-.63,18.15-3.89,19-4.6a8.46,8.46,0,0,0,2.87-5c.43-2.46-2-11.87-4.31-13.9s-7.89-3.49-7.89-3.49-5.9,6.39-9.78,9.14c-3.25,2.3-8.28,6.19-9.68,7.86a3,3,0,0,1-.38-.71c-.25-.91,7.15-6.65,11.64-9.81s11.32-10.49,11.32-10.49,6.47,1.68,9.13,4S651.19,319.24,650.69,322.06Z" style="fill: rgb(235, 235, 235); transform-origin: 632.155px 317.657px;" id="eljtyzcuy1ojn" class="animable"></path><path d="M486.71,330.56c2.68-2.3,118.68-7.83,122.52-6.94.64.15,8.59,12.85,7.87,14.85-5.43,15.08-13.18,37.71-14.69,38.95s-81.52,5.88-85,5.88c-4.1,0-29-25.83-40.08-37.73C475.88,344,483.64,333.21,486.71,330.56Z" style="fill: rgb(38, 50, 56); transform-origin: 547.149px 353.412px;" id="elcmvvperzq8g" class="animable"></path><g id="elkzzqi99lloh"><path d="M617.1,338.48c-5.43,15.07-13.18,37.7-14.69,38.94a24.38,24.38,0,0,1-5,.73c2.83-6.46,8.89-24,13.37-36.49.73-2-7.22-14.7-7.87-14.85-3.45-.81-97.5,3.58-118.45,6.15a23,23,0,0,1,2.26-2.39c2.67-2.31,118.68-7.84,122.52-6.95C609.87,323.77,617.82,336.47,617.1,338.48Z" style="opacity: 0.2; transform-origin: 550.803px 350.837px;" class="animable"></path></g><path d="M612.51,328.38l-6.91.4-1,.06-16.46,1-1,.06-68.74,4-1.06.06-21.92,1.27-1.07.06-12.21.71c.25-.34.5-.68.76-1l11.9-.69,1.06-.06,21.92-1.27,1.06-.06,67.87-3.93,1-.06,16.46-1,1-.06,6.78-.39Z" style="fill: rgb(55, 71, 79); transform-origin: 547.325px 331.74px;" id="elb2w7kshij1q" class="animable"></path><path d="M617.09,337.63l-7.2.42-1,.06-16.47.95-1,.06L514,343.61l-1.07.06L491,344.94l-1.07.06-12.45.73-.15-.16a1,1,0,0,1-.16-.78l13.2-.76,1.07-.06h0l21.91-1.26,1.07-.07L591,338.2l1-.06,16.46-.95,1-.06,7.35-.43A7.12,7.12,0,0,1,617.09,337.63Z" style="fill: rgb(55, 71, 79); transform-origin: 547.119px 341.215px;" id="elt3kuw5psdjg" class="animable"></path><path d="M614,347l.14.29h-.25l-.76.05-16.47.95-1,.06-86.12,5-1.06.06-21.92,1.27-.59,0-.47,0,.16-.35c-.18-.19-.37-.38-.54-.57l.81-.05,1.07-.06,21.92-1.27,1.06-.06,85.26-4.94,1-.06,16.47-1,1-.06.53,0Z" style="fill: rgb(55, 71, 79); transform-origin: 549.68px 350.47px;" id="elpl8a12zb0fe" class="animable"></path><path d="M610.82,356.09l-.34,1-9.49.55-1,.06-94.81,5.5-1.06.06-9.31.54c-.3-.29-.59-.59-.89-.89l10.63-.62,1.06-.06,94-5.44,1-.06Z" style="fill: rgb(55, 71, 79); transform-origin: 552.37px 359.945px;" id="elgquttkt4qri" class="animable"></path><path d="M607.3,365.81l-.36,1-1.66.1-1,.06L504,372.75l-.95-.9L603.83,366l1-.06Z" style="fill: rgb(55, 71, 79); transform-origin: 555.175px 369.28px;" id="ely95rdt8nj9e" class="animable"></path><path d="M521.28,327.39l-2.47,5.47-.44,1-4,8.79-.44,1-4,8.8-.44,1-4,8.81-.43,1-3.38,7.5-.72-.69,3-6.75.43-1,4-8.81.44-1,4-8.8.44-1,4-8.8.44-1,2.46-5.47Z" style="fill: rgb(55, 71, 79); transform-origin: 511.12px 349.075px;" id="el7418lf4hhv" class="animable"></path><path d="M498.15,329l-2.32,5.15-.44,1-4,8.79h0l-.44,1-4,8.8-.44,1-.2.44-.39-.41-.47,0,.16-.35.27-.62,4-8.8.44-1,4-8.8.45-1,2.3-5.11Z" style="fill: rgb(55, 71, 79); transform-origin: 491.8px 342.09px;" id="elw1gooe4keza" class="animable"></path><path d="M606.18,368.83c-.17.42-.32.83-.48,1.23l-1.44-3.12-.43-.93L600,357.66l-.42-.91-3.87-8.36-.42-.92-3.86-8.35-.43-.92-3.86-8.35-.43-.92-2.2-4.76,1,0,2.19,4.74.43.92,3.86,8.35.42.92,3.86,8.35.43.92,3.86,8.36.43.91,3.86,8.35.43.93Z" style="fill: rgb(55, 71, 79); transform-origin: 595.345px 347.115px;" id="eldovfs8mm2g" class="animable"></path><path d="M614.18,347.32h-.25c-.11.32-.22.65-.34,1l-.42-.92-.43-.92-3.86-8.35-.43-.92-3.86-8.35-.43-.93-2-4.33,1,0,2,4.29.43.93,3.86,8.35.43.92,3.86,8.35.29.63Z" style="fill: rgb(55, 71, 79); transform-origin: 608.17px 335.96px;" id="eln8uzw7foni" class="animable"></path><path d="M603.46,375.55c-.17.38-.33.71-.47,1l-88.74,5.14h0c-.37-.26-.76-.56-1.18-.88Z" style="fill: rgb(55, 71, 79); transform-origin: 558.265px 378.62px;" id="elbrnjzhya28r" class="animable"></path><path d="M380.66,362.75c-3.75.09-6,14.41-7.31,32.26s-1.24,26.49,1.65,27.82,13.87,1.55,15.64,1.55,63.18-12,64.74-13.85-6-30.38-8.32-32.82S385.32,362.64,380.66,362.75Z" style="fill: rgb(38, 50, 56); transform-origin: 414.061px 393.565px;" id="elljlztinj47" class="animable"></path><path d="M455.38,410.53c-.45.55-6,2-13.64,3.67-18.62,4.17-49.84,10.19-51.1,10.19-1.77,0-12.74-.23-15.63-1.56s-3-10-1.66-27.82,3.57-32.17,7.32-32.25C384,362.68,414.51,369,433,373.5h0c7.7,1.9,13.32,3.5,14,4.21C449.39,380.16,456.93,408.65,455.38,410.53Z" style="fill: rgb(38, 50, 56); transform-origin: 414.055px 393.575px;" id="elrwg68psfywj" class="animable"></path><g id="elq0ifi96urvi"><path d="M455.38,410.53c-.45.55-6,2-13.64,3.67,8.53-5.81,6.77-12.15,4.94-20.69s-9.3-18.86-13.61-20c7.7,1.9,13.32,3.5,14,4.21C449.39,380.16,456.93,408.65,455.38,410.53Z" style="opacity: 0.2; transform-origin: 444.329px 393.855px;" class="animable"></path></g><path d="M441.74,375.78H393.3v-2h40.84C437.07,374.51,439.66,375.19,441.74,375.78Z" style="fill: rgb(55, 71, 79); transform-origin: 417.52px 374.78px;" id="elgyejulfi909" class="animable"></path><path d="M451.07,388.47h-56v-2h55.41C450.67,387.12,450.87,387.79,451.07,388.47Z" style="fill: rgb(55, 71, 79); transform-origin: 423.07px 387.47px;" id="elosho9lzsv1s" class="animable"></path><path d="M454.22,400.72H395.06v-2h58.7C453.92,399.4,454.07,400.07,454.22,400.72Z" style="fill: rgb(55, 71, 79); transform-origin: 424.64px 399.72px;" id="elm62df7f7o1g" class="animable"></path><path d="M453.79,411.2c-1.59.51-4.27,1.19-7.65,2H391.57v-2Z" style="fill: rgb(55, 71, 79); transform-origin: 422.68px 412.2px;" id="elwn7l6ysy7i" class="animable"></path><path d="M395.88,400.14c-.07.51-7.83,19.73-9.61,24.13-4-.17-9.36-.57-11.26-1.44-2.89-1.33-3-10-1.66-27.82s3.57-32.17,7.32-32.25a94,94,0,0,1,10.63,1.68c1.08,4.24,5.34,21.06,5.41,22S396,399.56,395.88,400.14Z" style="fill: rgb(199, 199, 199); transform-origin: 384.619px 393.515px;" id="el2ojge99c4ye" class="animable"></path><path d="M393.77,399.13c0,.43-5.76,16.58-7.06,20.27-2.88-.15-6.78-.51-8.15-1.25-2.09-1.13-2.12-8.41-1.08-23.43s2.74-27.06,5.45-27.11a60,60,0,0,1,7.69,1.45c.76,3.58,3.77,17.75,3.82,18.57S393.83,398.64,393.77,399.13Z" style="fill: rgb(166, 166, 166); transform-origin: 385.626px 393.505px;" id="elg6bkwhpfhqo" class="animable"></path><g id="el84vg66ngb7i"><path d="M386.49,419.4c-2.84-.17-6.59-.53-7.93-1.25-2.08-1.13-2.12-8.4-1.07-23.42s2.73-27.07,5.44-27.12a23.11,23.11,0,0,1,3.46.55c-2.39,1.59-3.91,13-4.88,26.91-1,15-1,22.3,1.08,23.43A13.27,13.27,0,0,0,386.49,419.4Z" style="opacity: 0.1; transform-origin: 381.652px 393.505px;" class="animable"></path></g><path d="M630.24,396.39c1.36,1.64,26.6,5.66,28.43,4.16s6.15-51.21,5.32-53.37S640.55,362.81,639.22,365,628.57,394.4,630.24,396.39Z" style="fill: rgb(38, 50, 56); transform-origin: 647.068px 373.939px;" id="el10eq2wxqw3kp" class="animable"></path><g id="eljnpptsp7dzs"><path d="M663.8,355.6c0,.64-.08,1.31-.13,2-.21,3.18-.5,6.85-.82,10.69l-.18,2c-.3,3.41-.63,6.91-1,10.25-.08.67-.14,1.34-.21,2-.42,3.9-.85,7.52-1.26,10.48-.09.7-.19,1.37-.28,2-.48,3.18-.93,5.25-1.28,5.54-.77.63-5.72.28-11.27-.45h0s5.31-1,6.08-1.2,3.22-16.35,4.33-27.82-.78-19.62-2-19.5h0c4.34-3.06,7.91-5.2,8.23-4.37C664.19,347.7,664.09,350.94,663.8,355.6Z" style="opacity: 0.2; transform-origin: 655.735px 373.964px;" class="animable"></path></g><path d="M663.8,355.6c0,.64-.08,1.31-.13,2h-16c.84-.66,1.71-1.34,2.59-2Z" style="fill: rgb(55, 71, 79); transform-origin: 655.735px 356.6px;" id="elqb49h1rpi2" class="animable"></path><path d="M662.85,368.29l-.18,2H637.1c.26-.72.51-1.39.74-2Z" style="fill: rgb(55, 71, 79); transform-origin: 649.975px 369.29px;" id="el9inw6682sv" class="animable"></path><path d="M661.7,380.54c-.08.67-.14,1.34-.21,2H633.06c.2-.66.4-1.33.61-2Z" style="fill: rgb(55, 71, 79); transform-origin: 647.38px 381.54px;" id="elpwk373ac1d" class="animable"></path><path d="M660.23,393c-.09.7-.19,1.37-.28,2H630.06a15.39,15.39,0,0,1,.27-2Z" style="fill: rgb(55, 71, 79); transform-origin: 645.145px 394px;" id="elddkmgguut2e" class="animable"></path><g id="el7csaerfcjuh"><g style="opacity: 0.1; transform-origin: 361.82px 323.345px;" class="animable"><path d="M139.41,279.17c35.87,2.59,86,7,121.39,8.37l-.45.33,1.17-4.4c.22,1.2-8.91-29.63-8.86-29.35l-8.74-29.64L253.21,254c0,.15,9.18,29.48,9.19,29.62l0,.12-1.15,4.41-.09.34h-.36c-40.56-1.54-81-5.35-121.36-9.26Z" id="el9pp3ecee12m" class="animable" style="transform-origin: 200.905px 256.485px;"></path><path d="M276.91,275l-.88,6.33c-.19-.38,4.82,7.93,4.76,7.84,7.36.78,17,2.43,25.1,3.61,12.63,2,25.26,3.91,37.82,6.34C356.22,302,367.77,308,379,314c-11.43-5.53-23-11.24-35.48-14-4.17-.8-8.38-1.5-12.57-2.2-.29-.15-50.5-8.06-50.62-8.36,0,0-4.55-8.05-4.56-8.09s1.12-6.3,1.12-6.33Z" id="el0l1y2ey6gbos" class="animable" style="transform-origin: 327.385px 294.5px;"></path><path d="M334.49,319.41c-3,2.24-6.08,4.21-9.17,6.2a8.86,8.86,0,0,0-2.07,1.56c-1.6,2.19-2.9,4.66-4.4,7C320,331.31,321,328.35,323,326a74,74,0,0,1,11.46-6.59Z" id="eltyn9lqdaylh" class="animable" style="transform-origin: 326.67px 326.79px;"></path><path d="M432.18,321.05c17.67-3.24,42.81-7.85,60.42-10.78a38.81,38.81,0,0,1,6.13-.58l6.14-.26c22.12-1,63.59-2.57,85.86-3.34,4-.36,8.25.46,12.24,1,8.08,1.25,16.15,2.6,24.22,4-8.09-1.21-16.19-2.41-24.29-3.5-4-.51-8.15-1.29-12.17-.88-25.24,1.17-66.84,2.92-91.93,3.86a37.62,37.62,0,0,0-6.07.54c-8.12,1.31-51.55,8.45-60.55,9.93Z" id="eld5xj2h7mdao" class="animable" style="transform-origin: 529.685px 313.526px;"></path><path d="M260.78,288l-3.63,6.89c-.82,1.74-1.95,3.37-2.24,5.3-1.53,9.38-2.76,19.45-4,28.9a19.85,19.85,0,0,0-.26,2.83c.44,5.47,1.15,10.94,1.76,16.41l3.48,31c0,2.69-.31,5.22-.49,7.83-.36,4.47-1,11.08-1.24,15.51-.13,2.37.39,5.38.51,7.75l-.48-3.87c-.63-3.85-.05-7.79.09-11.67.24-4.6.8-11,.84-15.49-1.27-12-4.82-36.71-5.34-48.44,1.26-9.64,2.74-19.31,4.38-28.89a17.94,17.94,0,0,1,2.8-7.26c1.25-2.27,2.55-4.52,3.86-6.76Z" id="elflzhngfmpr9" class="animable" style="transform-origin: 255.3px 349.21px;"></path><path d="M279.43,413.41c-31.25-3.36-63.22-6.8-94.31-11.42a14,14,0,0,1-3.65-.94c-5.37-3.08-9.48-7.84-13.58-12.35,1.07.43-17.41-3.58-17.2-3.48l-17.4-3.69,17.49,3.24,17.46,3.33.12,0,.09.09c4.09,4.35,8.19,9,13.41,12a6.46,6.46,0,0,0,1.65.52c29.27,4.39,66.55,8.6,95.92,12.64Z" id="elb22nz1a601" class="animable" style="transform-origin: 206.36px 397.47px;"></path><path d="M168.17,388.46c-1.07-4.48-2.06-9-3-13.5s-1.44-9.06-2.56-13.57c-1.69-8.11-7-30.29-8.18-38.11a2.65,2.65,0,0,1,.06-1,179.76,179.76,0,0,1,6.12-18.09c4.11-7,9.1-13.37,13.73-20a18.34,18.34,0,0,1,2.19-3.74,66.75,66.75,0,0,1,6.63-2.84c-2.17,1-4.42,1.87-6.48,3.05a19.29,19.29,0,0,0-2,3.75c-3.6,5.54-10.15,14.46-13.27,20.12-2.1,5.33-3.87,10.84-5.52,16.31a7.72,7.72,0,0,0-.46,2.39c2.29,12.66,5.44,25.36,7.91,38,1,4.47,1.42,9.09,2.29,13.64s1.71,9.06,2.58,13.58Z" id="eld4g1vv7r1w" class="animable" style="transform-origin: 168.784px 333.035px;"></path><path d="M105.34,294.51c7.46-1.34,15-2.42,22.47-3.46A46.11,46.11,0,0,0,133,289c2.8-1.24,5.59-2.54,8.32-3.92a63.72,63.72,0,0,0,7.44-7.78,7,7,0,0,1,2.4-2,7.56,7.56,0,0,0-2.2,2.13,63.34,63.34,0,0,1-6.61,7.84,21.49,21.49,0,0,1-3.81,2.13c-3.51,1.63-6.8,3.5-10.56,4.57-7.53,1-15,1.85-22.61,2.51Z" id="elqixc6gnlgh" class="animable" style="transform-origin: 128.25px 284.905px;"></path><path d="M88.41,329.69a79.51,79.51,0,0,1,6.25,7.13c1.94,2.49,3.59,5.12,6.23,7-3-1.18-5-3.88-7-6.37a79.44,79.44,0,0,1-5.49-7.77Z" id="el3gqmbvnjh5f" class="animable" style="transform-origin: 94.645px 336.75px;"></path><path d="M516.41,422.21c-7,0-12.28-.48-14.47-1.75-6.39-3.7-36.8-56.24-37.13-59s2.87-12.2,3-12.6l.94.33c-1.13,3.29-3.2,10.07-3,12.16.33,2.59,30.82,54.9,36.64,58.26,5.42,3.13,32.52,1.05,56.43-.79l6-.46c25.89-2,47.29-5.26,49.29-5.8,1.78-1.15,11.79-28.05,15.42-40.73,3.68-12.86,4.67-20.57,4.67-21.14,0-1.43-3.49-5.72-5.69-8.09l.73-.68c.61.65,6,6.48,6,8.77,0,1-1.23,9.27-4.71,21.42-3,10.63-13.79,40.78-16.11,41.41-2,.55-23.53,3.87-49.48,5.84l-6,.46C543.45,421,527.63,422.21,516.41,422.21Z" id="eldsexktit254" class="animable" style="transform-origin: 550.013px 382.065px;"></path></g></g><path d="M249.33,256.23c-.77.33-6.25,19.95-6.25,19.95s-15,2.91-16.05,3a12.18,12.18,0,0,0-3.33,1.39L257.46,283Z" style="fill: rgb(38, 50, 56); transform-origin: 240.58px 269.615px;" id="elcocj2ypdcwr" class="animable"></path><path d="M245.32,277.64l-5.4-1.38s-.09-14.3,0-14.63-10.31-4.49-13.06-4.82-28.93,1.91-32.75,4.57,2,17.38,3.74,18.79,27.1,2.24,28.35,2.24,19.12-1.58,19.12-1.58Z" style="fill: rgb(70, 154, 194); transform-origin: 219.078px 269.594px;" id="el4wrxf34ywyn" class="animable"></path><g id="eloirxqvhxb4"><path d="M195,267.52a315,315,0,0,1,41.45,0,156.32,156.32,0,0,1-41.45,0Z" style="opacity: 0.2; transform-origin: 215.725px 267.869px;" class="animable"></path></g><g id="ellce706jyq49"><path d="M245.32,277.64v3.2s-17.87,1.58-19.12,1.58-26.6-.83-28.35-2.25c-1.32-1.07-5-9.86-5-15.16v-.12c.81,2.17,14.59,9.46,25.3,10.79s21.75-6.06,21.75-6.06c0,3.42,0,6.65,0,6.65Z" style="opacity: 0.1; transform-origin: 219.085px 273.655px;" class="animable"></path></g><g id="elkqpdtabnzgp"><path d="M239.92,261.63c-5.07,0-36.08,1-44.57-.84,6.42-2.39,29-4.28,31.52-4C229.6,257.15,239.92,261.27,239.92,261.63Z" style="fill: rgb(255, 255, 255); opacity: 0.4; transform-origin: 217.635px 259.332px;" class="animable"></path></g><path d="M502.16,268.2c-.26,0-9,.33-23,.75-7.85-5.1-59-38.23-60.62-38.44s-36.8-4.21-65.85-3.32c-24.49.75-77.15,4.17-93.59,5.36-2.47-7.24-4.06-12.52-3.68-12.68,1.61-.66,35.74-5.3,84.86-5.76,42-.39,87.35,5,88.84,5.82C464.63,239.63,503.49,268,502.16,268.2Z" style="fill: rgb(70, 154, 194); transform-origin: 378.779px 241.52px;" id="el1m6hnmbpxfy" class="animable"></path><g id="elb5hettgbbya"><path d="M502.16,268.2c-.26,0-9,.33-23,.75-7.85-5.1-59-38.23-60.62-38.44s-36.8-4.21-65.85-3.32c-24.49.75-77.15,4.17-93.59,5.36-2.47-7.24-4.06-12.52-3.68-12.68,1.61-.66,35.74-5.3,84.86-5.76,42-.39,87.35,5,88.84,5.82C464.63,239.63,503.49,268,502.16,268.2Z" style="opacity: 0.4; transform-origin: 378.779px 241.52px;" class="animable"></path></g><path d="M477.77,384.15s19.45,33.86,25.44,36.52,105.9-6.82,110.39-8.48,13.59-39.57,13.59-39.57-12.93,5.48-13.59,6.15-4,5.11-4.65,5.38-97.1,7.75-98.43,7.59-5.15-5.66-5.82-5.82S479.76,383.88,477.77,384.15Z" style="fill: rgb(38, 50, 56); transform-origin: 552.48px 396.879px;" id="elsjjbhodwu2" class="animable"></path><g id="el6b1w0rs6mxo"><g style="opacity: 0.2; transform-origin: 552.475px 392.66px;" class="animable"><path d="M607.13,384.34a26.24,26.24,0,0,1-3.34,3.81c-.67.28-97.11,7.76-98.44,7.59s-5.15-5.65-5.82-5.82c-.44-.11-11.42-1-19.25-1.47-1.56-2.63-2.52-4.3-2.52-4.3,2-.27,26.27,1.6,26.94,1.77s4.49,5.65,5.82,5.82S593.8,385.54,607.13,384.34Z" id="el3odavv5zfx6" class="animable" style="transform-origin: 542.445px 389.933px;"></path><path d="M627.19,372.62s-9.09,37.91-13.59,39.57a18.24,18.24,0,0,1-2.6.51c4.7-9.72,11-36.08,11-36.08s-6.34,2.69-10.37,4.53c.87-1.07,1.66-2.08,2-2.38C614.26,378.11,627.19,372.62,627.19,372.62Z" id="el3sw3qfwnufs" class="animable" style="transform-origin: 619.095px 392.66px;"></path></g></g><path d="M616.66,407.62c-.34.78-.68,1.48-1,2.08L501,418.93c-.53-.52-1.1-1.15-1.7-1.86Z" style="fill: rgb(55, 71, 79); transform-origin: 557.98px 413.275px;" id="el2wgdwgwejbk" class="animable"></path><path d="M619.27,400.76c-.24.7-.48,1.39-.72,2.05l-122.7,9.88c-.44-.61-.9-1.24-1.35-1.89Z" style="fill: rgb(55, 71, 79); transform-origin: 556.885px 406.725px;" id="elwyf90bbo05g" class="animable"></path><path d="M621.44,393.93c-.2.68-.41,1.36-.62,2L491.48,406.39c-.42-.62-.83-1.26-1.25-1.89Z" style="fill: rgb(55, 71, 79); transform-origin: 555.835px 400.16px;" id="elx7rnpba1la" class="animable"></path><path d="M623.41,387.12c-.19.67-.38,1.35-.58,2L487.39,400.07c-.41-.64-.8-1.27-1.19-1.9Z" style="fill: rgb(55, 71, 79); transform-origin: 554.805px 393.595px;" id="elu8x1nz142v" class="animable"></path><path d="M510.13,391.59l-26.67,2.14c-.41-.66-.79-1.29-1.16-1.9l25.87-2.08A10.4,10.4,0,0,0,510.13,391.59Z" style="fill: rgb(55, 71, 79); transform-origin: 496.215px 391.74px;" id="ell47lyh7wudf" class="animable"></path><path d="M625.25,380.32l-.54,2-15.11,1.22c.49-.52,1.16-1.33,1.82-2.14Z" style="fill: rgb(55, 71, 79); transform-origin: 617.425px 381.93px;" id="el9z3wq42d8w" class="animable"></path><g id="elxpohiqemre"><path d="M173,299.77h.55a5.88,5.88,0,0,1,5.88,5.88v5.66a5.89,5.89,0,0,1-5.89,5.89H173a5.88,5.88,0,0,1-5.88-5.88v-5.66A5.88,5.88,0,0,1,173,299.77Z" style="fill: rgb(70, 154, 194); transform-origin: 173.275px 308.485px; transform: rotate(9.13deg);" class="animable"></path></g><g id="el0x7wp1et4tkb"><path d="M173,299.77h.55a5.88,5.88,0,0,1,5.88,5.88v5.66a5.89,5.89,0,0,1-5.89,5.89H173a5.88,5.88,0,0,1-5.88-5.88v-5.66A5.88,5.88,0,0,1,173,299.77Z" style="opacity: 0.1; transform-origin: 173.275px 308.485px; transform: rotate(9.13deg);" class="animable"></path></g><g id="elvr91xheu2w"><rect x="164.83" y="305.84" width="15.01" height="5.95" rx="1" style="fill: rgb(70, 154, 194); transform-origin: 172.335px 308.815px; transform: rotate(5.19deg);" class="animable"></rect></g><g id="elrve1wrr77t"><g style="opacity: 0.2; transform-origin: 172.335px 308.815px;" class="animable"><g id="elnn3qzubhtd9"><rect x="164.83" y="305.84" width="15.01" height="5.95" rx="1" style="fill: rgb(255, 255, 255); transform-origin: 172.335px 308.815px; transform: rotate(5.19deg);" class="animable"></rect></g></g></g><g id="elqr5omyygqer"><path d="M502.15,268.2c-.26,0-9,.33-23,.75-56.86,1.76-199.79,5.93-202.29,6.07-2.15.12-12.2-26.15-17.77-42.47-2.47-7.24-4.06-12.52-3.68-12.68,1.61-.66,35.74-5.3,84.86-5.76,42-.39,87.35,5,88.84,5.82C464.62,239.63,503.48,268,502.15,268.2Z" style="fill: rgb(235, 235, 235); opacity: 0.3; transform-origin: 378.769px 244.555px;" class="animable"></path></g><g id="elkre8o7nrvss"><path d="M502.15,268.2c-.26,0-9,.33-23,.75-56.86,1.76-199.79,5.93-202.29,6.07-2.15.12-12.2-26.15-17.77-42.47-2.47-7.24-4.06-12.52-3.68-12.68.61-.25,5.85-1.07,14.78-2,65.29,27.8,141.86,40,169,36.54,14.53-1.84,15.86-11.26,13.24-20.67C479.7,250.69,503.19,268,502.15,268.2Z" style="fill: rgb(255, 255, 255); opacity: 0.1; transform-origin: 378.769px 246.445px;" class="animable"></path></g></g><g id="freepik--Character--inject-2" class="animable" style="transform-origin: 459.574px 271.33px;"><path d="M506.17,251.1s0,35.48-.05,35.51c-2.75,8.53-5,16.06-5.81,20.07a.07.07,0,0,0,0,.06,6.2,6.2,0,0,0-.22,2.84s0,.05,0,.07c2,2.54,69.54,26.51,72.18,26.55s3-7.47,1.09-10.49-23.65-23.77-23.65-23.77l.16-40.39Z" style="fill: rgb(211, 118, 106); transform-origin: 537.29px 293.65px;" id="el3xzsvw1fpqa" class="animable"></path><path d="M572.3,336.2c-2.65,0-70.2-24-72.19-26.55,0,0,0,0,0-.07a6.43,6.43,0,0,1,.23-2.84.06.06,0,0,1,0-.06c.8-4,3.06-11.54,5.81-20.07v-5.14l43.63,13,0,7.46s21.74,20.74,23.65,23.77S574.94,336.25,572.3,336.2Z" style="fill: rgb(235, 235, 235); transform-origin: 537.332px 308.835px;" id="el27i3pmbvjy4" class="animable"></path><path d="M572.35,336.13c-2.66-.08-70.36-25.34-72.33-27.94-.76-1,6.06-21.46,6.1-21.58l44.34,13.88-.29.74s21.59,21.26,23.45,24.34S575,336.23,572.35,336.13Z" style="fill: rgb(70, 154, 194); transform-origin: 537.35px 311.37px;" id="el7oavwoweiq" class="animable"></path><g id="eldwrbn8cx5y"><path d="M572.35,336.13c-2.66-.08-70.36-25.34-72.33-27.94-.76-1,6.06-21.46,6.1-21.58l44.34,13.88-.29.74s21.59,21.26,23.45,24.34S575,336.23,572.35,336.13Z" style="opacity: 0.3; transform-origin: 537.35px 311.37px;" class="animable"></path></g><path d="M553.79,302.73c-4.18-2.52-9.93-3.88-14.56-2-.18.08-.07.33.09.34a67.29,67.29,0,0,1,14.24,2.18A.31.31,0,0,0,553.79,302.73Z" style="fill: rgb(38, 50, 56); transform-origin: 546.505px 301.551px;" id="ele7f877f76bc" class="animable"></path><path d="M556.3,305.89c-4.18-2.51-9.93-3.87-14.55-1.95-.18.07-.08.33.09.33a68,68,0,0,1,14.23,2.18A.31.31,0,0,0,556.3,305.89Z" style="fill: rgb(38, 50, 56); transform-origin: 549.044px 304.744px;" id="elemi8p3nbzo" class="animable"></path><path d="M558.81,309.05c-4.18-2.51-9.93-3.87-14.55-1.95-.18.08-.07.33.09.34a67.28,67.28,0,0,1,14.23,2.17A.31.31,0,0,0,558.81,309.05Z" style="fill: rgb(38, 50, 56); transform-origin: 551.555px 307.904px;" id="ele8bvkgwlkjq" class="animable"></path><path d="M574.29,334.09c1,.92-.74,4.89-1.74,4.89s-74.69-27.86-75.84-28.61,1-5.08,2.53-4.77S574.29,334.09,574.29,334.09Z" style="fill: rgb(38, 50, 56); transform-origin: 535.487px 322.282px;" id="el0ddgrerxls8" class="animable"></path><path d="M515,296.44c-4-4.29-10.66,1.91-6.66,6.21S519,300.73,515,296.44Z" style="fill: rgb(255, 255, 255); transform-origin: 511.67px 299.546px;" id="elltetnmbje89" class="animable"></path><path d="M504.06,278.2l47.06,15.09s-.72-60.71-2-81.59c-1-16.24-20.46-26.69-37.62-16.32-22.92,13.86-33.39,21.58-44.34,29.26l-2.07-1.87-29-.58s-2.41,34.31,35.21,45.71c13.6,4.13,31.93-10.3,31.94-9.82C503.35,259.81,504.06,278.2,504.06,278.2Z" style="fill: rgb(69, 90, 100); transform-origin: 493.589px 242.263px;" id="elsatlay53b" class="animable"></path><path d="M503.47,258.29c0-3.16.39-6.35.58-9.51s.36-6.12.55-9.18c.4-6.17.7-12.37,1.17-18.54.26-3.46.64-6.92,1-10.37a.07.07,0,0,0-.13,0q-.78,4.77-1.43,9.55c0-.6,0-1.19-.05-1.77-.08-1.61-.19-3.21-.3-4.81a.05.05,0,1,0-.1,0c.05,1.57.11,3.15.19,4.73,0,.79.12,1.58.19,2.37a215,215,0,0,0-2.06,26.94c0,3.54.25,7.09.22,10.63C503.29,258.42,503.47,258.4,503.47,258.29Z" style="fill: rgb(38, 50, 56); transform-origin: 504.925px 234.516px;" id="el8v8uc2ypgar" class="animable"></path><path d="M508.9,270.9c-.49-4.3-.63-16.65-.73-20.95-.22-8.7-.06-17.38.32-26.07.22-4.91.58-9.8.95-14.7,0,0,0-.05-.05,0a258,258,0,0,0-2.09,25.9c-.31,8.67.59,32.86,1.43,35.85A.09.09,0,0,0,508.9,270.9Z" style="fill: rgb(38, 50, 56); transform-origin: 508.339px 240.069px;" id="el2w121fkq3ee" class="animable"></path><path d="M503.74,213.13c-6.09,6.38-12.2,12.68-18.28,19.05-3.08,3.22-6.16,6.43-9.23,9.67-1.44,1.52-2.88,3.07-4.33,4.57a11,11,0,0,1-4.14,3,14.25,14.25,0,0,1-4.47.45c-1.67.05-3.35.15-5,.15-.08,0-.13.18-.06.18,1.47,0,2.9.11,4.36.17a23.28,23.28,0,0,0,4,0,7.3,7.3,0,0,0,3.89-1.8,50.81,50.81,0,0,0,4.19-4.23q9.29-9.87,18.54-19.84c3.51-3.77,7-7.57,10.53-11.32C503.77,213.14,503.76,213.11,503.74,213.13Z" style="fill: rgb(38, 50, 56); transform-origin: 480.978px 231.79px;" id="elk3h51z1yyf" class="animable"></path><path d="M506.11,271.56c2.86.83,5.66,1.93,8.47,2.91l8.47,2.91c5.63,1.94,25.06,8,26.64,8.23.1,0,.14-.14,0-.18-1.26-.68-13.83-5-16.67-5.89-5.67-1.85-11.39-3.52-17.1-5.24-1.63-.5-3.28-1-4.91-1.43s-3.29-.91-4.9-1.46C506.06,271.37,506,271.53,506.11,271.56Z" style="fill: rgb(38, 50, 56); transform-origin: 527.914px 278.507px;" id="elq55pjnn6cl" class="animable"></path><path d="M452.43,355.05l-14.19,35.32c-2.75,8.54-5,16.07-5.82,20.07,0,0,0,0,0,.07a6.36,6.36,0,0,0-.22,2.84l0,.07c2,2.53,69.55,26.5,72.19,26.55s3-7.47,1.08-10.5-23.65-23.77-23.65-23.77l12.7-36.93Z" style="fill: rgb(211, 118, 106); transform-origin: 469.406px 397.51px;" id="elm5o0i7khth" class="animable"></path><path d="M504.41,440c-2.64-.05-70.2-24-72.18-26.55,0,0,0,0,0-.07a6.36,6.36,0,0,1,.22-2.84.08.08,0,0,1,0-.07c.81-4,3.07-11.54,5.82-20.06l2.05-5.14L484,399.37l-2.17,6.33s21.75,20.74,23.66,23.78S507.05,440,504.41,440Z" style="fill: rgb(235, 235, 235); transform-origin: 469.429px 412.635px;" id="el1o2x250gbfs" class="animable"></path><path d="M504.47,439.9c-2.66-.09-70.37-25.34-72.33-27.94-.77-1,6.05-21.46,6.1-21.59l44.33,13.89-.29.73s21.59,21.26,23.45,24.35S507.13,440,504.47,439.9Z" style="fill: rgb(70, 154, 194); transform-origin: 469.468px 415.135px;" id="elw5thwnu1w6" class="animable"></path><g id="elinoghw68mwk"><path d="M504.47,439.9c-2.66-.09-70.37-25.34-72.33-27.94-.77-1,6.05-21.46,6.1-21.59l44.33,13.89-.29.73s21.59,21.26,23.45,24.35S507.13,440,504.47,439.9Z" style="opacity: 0.3; transform-origin: 469.468px 415.135px;" class="animable"></path></g><path d="M485.9,406.49c-4.18-2.51-9.93-3.87-14.55-1.95-.18.07-.07.33.09.34a67.28,67.28,0,0,1,14.23,2.17A.31.31,0,0,0,485.9,406.49Z" style="fill: rgb(38, 50, 56); transform-origin: 478.645px 405.344px;" id="elonmg0y7de1" class="animable"></path><path d="M488.41,409.66c-4.17-2.52-9.92-3.88-14.55-2-.18.08-.07.33.09.34a67.39,67.39,0,0,1,14.24,2.18A.3.3,0,0,0,488.41,409.66Z" style="fill: rgb(38, 50, 56); transform-origin: 481.137px 408.481px;" id="ell7sv7vdixcq" class="animable"></path><path d="M490.93,412.82c-4.18-2.51-9.93-3.87-14.56-1.95-.18.07-.07.32.1.33a68,68,0,0,1,14.23,2.18A.31.31,0,0,0,490.93,412.82Z" style="fill: rgb(38, 50, 56); transform-origin: 483.67px 411.674px;" id="el88w4s1bm6w8" class="animable"></path><path d="M506.41,437.85c1,.92-.74,4.89-1.74,4.89s-74.7-27.86-75.85-28.61,1-5.08,2.54-4.76S506.41,437.85,506.41,437.85Z" style="fill: rgb(38, 50, 56); transform-origin: 467.602px 426.047px;" id="elrns5g09t6la" class="animable"></path><path d="M447.06,400.21c-4-4.29-10.66,1.91-6.66,6.2S451.06,404.5,447.06,400.21Z" style="fill: rgb(255, 255, 255); transform-origin: 443.73px 403.31px;" id="elsgk6gxf3zzj" class="animable"></path><path d="M488.25,397.71l-49.58-19.8s30.66-68.34,30-69.67c-2.22-4.61-45.82-14.16-58.43-33.48-13.35-20.45,7.2-53.1,7.2-53.1l42.57,1s-3.69,24.93-2.12,26.9c1,1.32,57.28,23.61,64.13,38C532.51,309.59,488.25,397.71,488.25,397.71Z" style="fill: rgb(69, 90, 100); transform-origin: 464.68px 309.685px;" id="elqzm267iyb5e" class="animable"></path><path d="M524.57,295.25a21.31,21.31,0,0,0-2.12-6.55,24.54,24.54,0,0,0-4.58-6A83.62,83.62,0,0,0,505.3,273a153.37,153.37,0,0,0-14.09-8.34c-4.91-2.58-9.93-4.94-15-7.21s-10.17-4.28-15.27-6.4l-2.41-1c3-.51,5.94-1.07,8.9-1.62a.14.14,0,1,0,0-.27,44.71,44.71,0,0,0-16.86,2.88.08.08,0,0,0,0,.15c2.54-.27,5.06-.66,7.57-1.08,4.59,2,9.16,4.13,13.73,6.22,4.93,2.26,9.85,4.59,14.65,7.13,9.52,5,18.87,10.56,27.2,17.43,3.78,3.11,7.2,6.72,8.68,11.49,1.37,4.43,1,9.19.19,13.69a137.17,137.17,0,0,1-4.06,14.86q-2.58,8.34-5.42,16.61c-1.9,5.5-12.59,33.76-13.31,34.92-.1.17.17.35.29.19.84-1.08,17.23-41.89,19-47.53,1.6-5.2,3.25-10.42,4.47-15.73A37.74,37.74,0,0,0,524.57,295.25Z" style="fill: rgb(38, 50, 56); transform-origin: 487.674px 310.43px;" id="elrxp1ldouru" class="animable"></path><path d="M476.22,303.41a25.51,25.51,0,0,0-4.33-1.76l-4.9-1.89-9.66-3.71c-6.19-2.39-12.42-4.69-18.56-7.18-10.48-4.25-21.57-10.29-25.73-21.53a21.33,21.33,0,0,1-1.32-8.11,61.32,61.32,0,0,1,1.42-10,128.13,128.13,0,0,1,5.53-19.59c.57-1.57,1.21-3.11,1.86-4.64.05-.1-.1-.17-.14-.07a136,136,0,0,0-6.51,18.93q-1.25,4.84-2.12,9.77a30.72,30.72,0,0,0-.54,9.12c1.39,11.1,10.68,18.91,20.11,23.6,5.81,2.89,12,5,18,7.36l19.07,7.3,4.77,1.83c1.29.49,3.7.95,3.62,2.73a5.83,5.83,0,0,1-.65,2l-1.11,2.47-2.17,4.8q-4.2,9.36-8.38,18.73c-5.61,12.57-6.43,14.36-12,27-.69,1.57-1.38,3.13-2.06,4.7a.07.07,0,1,0,.12.06c5.69-12.54,6.81-14.19,12.48-26.73q4.28-9.48,8.48-19,2.08-4.68,4.16-9.38a19.66,19.66,0,0,0,1.69-4.15A2.44,2.44,0,0,0,476.22,303.41Z" style="fill: rgb(38, 50, 56); transform-origin: 444.255px 295.135px;" id="elk099taw0u19" class="animable"></path><path d="M489.27,386c-2.67-1.27-5.3-2.61-8-3.76s-5.48-2.26-8.23-3.35q-8.2-3.23-16.52-6.14c-3.13-1.1-6.29-2.11-9.4-3.25-.09,0-.12.13,0,.16,5.6,2.05,11.1,4.42,16.63,6.67s10.81,4.43,16.25,6.57c3.05,1.2,6.16,2.25,9.24,3.37C489.31,386.34,489.4,386.08,489.27,386Z" style="fill: rgb(38, 50, 56); transform-origin: 468.188px 377.891px;" id="el4hsmd9hz4a9" class="animable"></path><path d="M421.84,250.92a61.16,61.16,0,0,0,7.5-2.28c2-.74,4.12-1.49,5.6-3.16,2.87-3.26,3.32-8,3.21-12.19,0-.1.17-.11.18,0,.32,4.48,1.16,9.53-2.06,13.25a11.82,11.82,0,0,1-6.1,3.38,40.73,40.73,0,0,1-8.29,1.19C421.76,251.11,421.72,250.94,421.84,250.92Z" style="fill: rgb(38, 50, 56); transform-origin: 430.219px 242.161px;" id="el14ncc4s6hpg" class="animable"></path><path d="M450.94,172.56c25.76-5,53.34-10.32,54.28-19.34,1-10-22-13.93-23.41-13.27-1.54.73-20.2,10.45-34.88,22C430.84,174.59,444.58,173.8,450.94,172.56Z" style="fill: rgb(211, 118, 106); transform-origin: 472.326px 156.545px;" id="elkgf5yb1cuki" class="animable"></path><g id="el2x93d0ey91c"><path d="M451,172.56c9.95-1.94,20.17-3.92,29-6.14l-34.92-2.95C432,174.53,444.85,173.74,451,172.56Z" style="opacity: 0.1; transform-origin: 459.709px 168.339px;" class="animable"></path></g><path d="M398.93,260.82c.18.21,71.82-20.86,72.55-21.66,1-1.13-14.11-56.95-21.86-71.1-2.74-5-15.22-7.45-20.35-2.78C410.67,182.21,398.28,260.07,398.93,260.82Z" style="fill: rgb(70, 154, 194); transform-origin: 435.216px 211.805px;" id="el9lj6mkbp0e" class="animable"></path><path d="M447.39,174.08c-3.73,1.67-12.5-3.35-16.06-7.67-.24-.3-.4-3.89-.8-8.23-.25-2.64-.59-5.57-1.09-8.22-.11-.55,1.93.1,1.93.1l3.59.18,11.88.59a42.92,42.92,0,0,0,.33,10.49,5.58,5.58,0,0,0,.32,1.07c0,.05,0,.1.06.17C448.28,164.57,451,172.47,447.39,174.08Z" style="fill: rgb(211, 118, 106); transform-origin: 439.328px 162.074px;" id="el6omi87dglj3" class="animable"></path><path d="M447.49,162.39c0,.05,0,.1.06.17a10.56,10.56,0,0,1-1.7.42c-11.24,1.88-15.35-12.09-15.35-12.09l4.46-.65,11.88.59a42.92,42.92,0,0,0,.33,10.49A5.58,5.58,0,0,0,447.49,162.39Z" style="fill: rgb(38, 50, 56); transform-origin: 439.025px 156.697px;" id="elml9748c2o3" class="animable"></path><path d="M423.29,132.83c-.35,6.26,6.86,22.35,11.92,25.09,7.35,4,17.32,2.08,20.17-6.28,2.77-8.11-7-28.91-12.46-31.18C434.86,117.1,423.8,123.57,423.29,132.83Z" style="fill: rgb(211, 118, 106); transform-origin: 439.571px 139.744px;" id="elo53p0qno61c" class="animable"></path><path d="M442.55,139.69s-.06.09,0,.14c.51,1.07.92,2.38.1,3.18,0,0,0,.07,0,.05C443.77,142.36,443.21,140.63,442.55,139.69Z" style="fill: rgb(38, 50, 56); transform-origin: 442.906px 141.377px;" id="elzs7i038apyr" class="animable"></path><path d="M441.08,139c-1.81.64-.39,4.2,1.28,3.61S442.59,138.45,441.08,139Z" style="fill: rgb(38, 50, 56); transform-origin: 441.672px 140.809px;" id="elo51nb2pnb7l" class="animable"></path><path d="M448.73,137s.11,0,.13.06c.4,1.12,1.05,2.33,2.19,2.3,0,0,.06.06,0,.07C449.78,139.75,448.93,138.13,448.73,137Z" style="fill: rgb(38, 50, 56); transform-origin: 449.903px 138.236px;" id="elyq13byqzzoh" class="animable"></path><path d="M449.26,135.46c1.72-.83,3.27,2.67,1.68,3.45S447.82,136.17,449.26,135.46Z" style="fill: rgb(38, 50, 56); transform-origin: 450.144px 137.178px;" id="ellle63ba2ks" class="animable"></path><path d="M439,137.92c.43-.32.78-.68,1.19-1a2.54,2.54,0,0,0,1-1.28.81.81,0,0,0-.49-.86,2,2,0,0,0-2,.55,3,3,0,0,0-1.11,1.81A.87.87,0,0,0,439,137.92Z" style="fill: rgb(38, 50, 56); transform-origin: 439.391px 136.408px;" id="el722jusq9djg" class="animable"></path><path d="M449.93,133.12a13.87,13.87,0,0,1-1.56.2,2.59,2.59,0,0,1-1.63-.11.81.81,0,0,1-.33-.94,2,2,0,0,1,1.73-1.08,2.94,2.94,0,0,1,2.09.38A.86.86,0,0,1,449.93,133.12Z" style="fill: rgb(38, 50, 56); transform-origin: 448.486px 132.27px;" id="elajjk5y9c8p" class="animable"></path><path d="M445,150.09a1.74,1.74,0,0,0,1.18.28,3.2,3.2,0,0,0,1.08-.74s.08,0,.07,0a1.61,1.61,0,0,1-1.16,1.16,1.29,1.29,0,0,1-1.26-.63C444.87,150.13,445,150.07,445,150.09Z" style="fill: rgb(38, 50, 56); transform-origin: 446.117px 150.214px;" id="elw5r5n7em1wq" class="animable"></path><path d="M444.85,146.33A4,4,0,0,0,448,147a5.39,5.39,0,0,0,1.38-.48.92.92,0,0,0,.24-.13l.23-.13a.3.3,0,0,0,.12-.34h0a1.17,1.17,0,0,0-.05-.11h0l0-.1c-.31-.86-.91-2.12-.91-2.12.38,0,2.24.12,2-.31a61.51,61.51,0,0,0-6-10.8.12.12,0,0,0-.2.11c1.48,3.51,3.56,6.74,5.1,10.25a6.65,6.65,0,0,0-2,.16c-.11.08,1.19,2.41,1.3,2.81a.1.1,0,0,1,0,0,5.59,5.59,0,0,1-4.37.34C444.81,146.16,444.75,146.27,444.85,146.33Z" style="fill: rgb(38, 50, 56); transform-origin: 447.913px 139.766px;" id="elg7f8kuwr7dr" class="animable"></path><path d="M448.73,146.3a4.75,4.75,0,0,1-1.24,2.09,2.13,2.13,0,0,1-1.19.56c-1,.12-1.32-.68-1.43-1.44a5.23,5.23,0,0,1,0-1.21A6.23,6.23,0,0,0,448.73,146.3Z" style="fill: rgb(38, 50, 56); transform-origin: 446.782px 147.631px;" id="elzxa03pgitzh" class="animable"></path><path d="M447.49,148.39a2.13,2.13,0,0,1-1.19.56c-1,.12-1.32-.68-1.43-1.44A2.24,2.24,0,0,1,447.49,148.39Z" style="fill: rgb(255, 152, 185); transform-origin: 446.18px 148.172px;" id="elaymm6v2xb6q" class="animable"></path><path d="M428.05,147.14c2.59-.12,3.54-3.56,3.67-5.24s-3.66-9.56-3.23-12.16,2.49-4.64,4.63-4.7,5.51,1.67,6.91,1.06.72-3.84,1.72-4.17c2.21-.72,6.46,3.79,7.65,6.08,0,0-3.56-10.91-14.46-8.38-10.62,2.47-12.47,10-12.35,13.41C422.83,139.57,428.05,147.14,428.05,147.14Z" style="fill: rgb(38, 50, 56); transform-origin: 435.992px 133.195px;" id="el706vxre4t1w" class="animable"></path><path d="M430.25,145.67s-5.23-4.41-7.33-2.4,2.84,9.1,6,9.41a3,3,0,0,0,3.51-2.63Z" style="fill: rgb(211, 118, 106); transform-origin: 427.423px 147.736px;" id="elck4rx9zvqw" class="animable"></path><path d="M424.39,145.27a0,0,0,0,0,0,.08c2.25.28,3.81,1.87,5.08,3.62a1.69,1.69,0,0,0-2.55.2c0,.05,0,.12.09.1a1.85,1.85,0,0,1,2.15.1,8.8,8.8,0,0,1,1.38,1.35c.15.16.45,0,.32-.22l0,0C430.2,147.87,427.23,144.79,424.39,145.27Z" style="fill: rgb(38, 50, 56); transform-origin: 427.641px 148.003px;" id="eltdud0utu67" class="animable"></path><path d="M444.72,151.65a2.59,2.59,0,0,0,2.48-.31,4.66,4.66,0,0,1,.36,1.57,3.86,3.86,0,0,1-.22.55l-.21-.56s-.09,1.74-.52,2.17a10.94,10.94,0,0,1-.82-.89,4.6,4.6,0,0,1-.43-1l.36,1.2A3.31,3.31,0,0,1,444.72,151.65Z" style="fill: rgb(38, 50, 56); transform-origin: 446.131px 153.205px;" id="elyms8k5x5tmk" class="animable"></path><path d="M428.76,167.09c8.74,0,10.06,34.7-3.81,34.16C410.76,200.7,418.27,167.09,428.76,167.09Z" style="fill: rgb(211, 118, 106); transform-origin: 426.249px 184.173px;" id="eltvqktrnum3" class="animable"></path><path d="M420.89,173c-14.22,24.55-35.5,73.61-39.34,81.66-2.61,5.47,26.91,19.41,28.13,15.44,1.55-5.1,20.83-62.37,22.13-91.64C432.41,164.92,425.44,165.18,420.89,173Z" style="fill: rgb(211, 118, 106); transform-origin: 406.617px 219.201px;" id="elbow94gk6c6n" class="animable"></path><path d="M410.45,267.38c-.66,5-4,14.94-6.54,16.47S388.25,285,381.61,285s-7.93-1.85-7.83-4.13,14-2.72,14-2.72-18.59,5.33-23.26,6.2-15.45,3.59-17-.29c-.7-1.75,2.25-3.52,2.25-3.52s-4.52,1.32-5.24-.92c-.82-2.56,2.78-4,2.78-4s-2.83.57-2.89-1.51c-.15-4.66,17.53-6.95,17.53-6.95s-13.54,6.59-14,2.79c-.6-5.26,27.14-11,30-13.33A53.72,53.72,0,0,0,383.9,251Z" style="fill: rgb(211, 118, 106); transform-origin: 377.429px 268.545px;" id="elkdep9fu0xuf" class="animable"></path><path d="M373.88,282.07a2.07,2.07,0,0,1,.63-1.78,5.94,5.94,0,0,1,1.62-1.05,21.91,21.91,0,0,1,3.8-1.23c2.61-.66,5.29-1.13,8-1.82a32.37,32.37,0,0,0-8.19.92,15.23,15.23,0,0,0-3.91,1.49,5.48,5.48,0,0,0-1.63,1.41A2.13,2.13,0,0,0,373.88,282.07Z" style="fill: rgb(38, 50, 56); transform-origin: 380.838px 279.128px;" id="eld80h4il9a44" class="animable"></path><path d="M349.79,280.58c1.91-.46,3.8-1,5.68-1.55s3.75-1.12,5.62-1.68l5.6-1.76c1.87-.58,3.74-1.16,5.62-1.72a44.18,44.18,0,0,0-5.81,1c-1.91.44-3.8,1-5.68,1.56s-3.74,1.2-5.57,1.9S351.58,279.75,349.79,280.58Z" style="fill: rgb(38, 50, 56); transform-origin: 361.05px 277.225px;" id="elm25ean20urk" class="animable"></path><path d="M367.82,269.22a37.37,37.37,0,0,0-5.36.75,48.13,48.13,0,0,0-5.25,1.35,46.1,46.1,0,0,0-5.07,1.89,37.68,37.68,0,0,0-4.81,2.48c1.71-.59,3.37-1.24,5.07-1.81s3.38-1.15,5.09-1.68,3.42-1,5.14-1.54S366.08,269.7,367.82,269.22Z" style="fill: rgb(38, 50, 56); transform-origin: 357.575px 272.455px;" id="elnhdksfvco6d" class="animable"></path><path d="M365.09,264.79a33.25,33.25,0,0,0-8.54,1.8,32.91,32.91,0,0,0-7.85,3.8c2.75-1,5.42-2,8.15-2.92S362.31,265.68,365.09,264.79Z" style="fill: rgb(38, 50, 56); transform-origin: 356.895px 267.59px;" id="el96oa1w7xdku" class="animable"></path><path d="M429,200.45a158.41,158.41,0,0,1,3.75-17.53A158.9,158.9,0,0,1,429,200.45Z" style="fill: rgb(38, 50, 56); transform-origin: 430.875px 191.685px;" id="elw6mwm41n7pl" class="animable"></path><path d="M433.29,185.34a4.91,4.91,0,0,1-1.72,3.22,10.76,10.76,0,0,1,1.72-3.22Z" style="fill: rgb(38, 50, 56); transform-origin: 432.43px 186.95px;" id="eljo6ilrjjeyb" class="animable"></path><path d="M502,157c-7.23.07-19-5.62-39.82-25.32-2.88-2.73,18.71-21.11,21.94-18.36,4.06,3.47,14.33,15.15,16.78,19.69C506.16,142.8,506.86,156.94,502,157Z" style="fill: rgb(211, 118, 106); transform-origin: 483.596px 135.021px;" id="el3tymycnqruk" class="animable"></path><path d="M490.59,119.82s-1-1.39-6.57-8.67c-3.87-5-16.5-14.83-33.64-9.87-6.57,1.9-8.1,7.34-.93,6.58,5.05-.54,8.51-1.35,10.2-1.06,0,0-5.53,5.46-4.81,9.91a83.1,83.1,0,0,0,2.71,11.48,17.81,17.81,0,0,0,2.2-.31,9.46,9.46,0,0,0,7.31,7Z" style="fill: rgb(211, 118, 106); transform-origin: 467.656px 117.4px;" id="elfpqw61s3akn" class="animable"></path><path d="M479.56,106.94c-3.26-.66-10.2-1.93-16.23-1-6.71,1-19.35,4.83-18.53,9.77.6,3.63,5.55,2.6,5.55,2.6s-4.89,2.67-3.64,5.83c1.15,2.87,4.93,1.85,4.93,1.85s-2.69,2.13-1.05,4.69c2,3.07,7.28-1.9,12-.5C463.6,130.49,479.56,106.94,479.56,106.94Z" style="fill: rgb(211, 118, 106); transform-origin: 462.161px 118.656px;" id="elbpt3stiih0r" class="animable"></path><path d="M465.6,112.84a27,27,0,0,0-15.2,5.34c-.11.09-.1.21,0,.16a66.67,66.67,0,0,1,15.2-5.44S465.64,112.84,465.6,112.84Z" style="fill: rgb(38, 50, 56); transform-origin: 457.969px 115.596px;" id="elvyogk06m6i" class="animable"></path><path d="M466.45,119.64c-2.75.18-10.16,2.15-14.86,6.23-.11.1-.09.22,0,.16a71.61,71.61,0,0,1,14.85-6.33S466.48,119.64,466.45,119.64Z" style="fill: rgb(38, 50, 56); transform-origin: 458.988px 122.843px;" id="elbxrszm8bjn" class="animable"></path><path d="M475.43,143.68c5.35,3.17,10.32,6.69,15.56,10a45.38,45.38,0,0,1-15.56-10Z" style="fill: rgb(38, 50, 56); transform-origin: 483.21px 148.68px;" id="el5p0dzth0n1x" class="animable"></path><path d="M451.61,126c-1.66,2.08-1.78,4.9,1.22,5.67a2.57,2.57,0,0,1-2-.41c-2-1.37-1.16-4.29.77-5.26Z" style="fill: rgb(38, 50, 56); transform-origin: 451.256px 128.862px;" id="elwytu6z9cnl" class="animable"></path></g><defs>     <filter id="active" height="200%">         <feMorphology in="SourceAlpha" result="DILATED" operator="dilate" radius="2"></feMorphology>                <feFlood flood-color="#32DFEC" flood-opacity="1" result="PINK"></feFlood>        <feComposite in="PINK" in2="DILATED" operator="in" result="OUTLINE"></feComposite>        <feMerge>            <feMergeNode in="OUTLINE"></feMergeNode>            <feMergeNode in="SourceGraphic"></feMergeNode>        </feMerge>    </filter>    <filter id="hover" height="200%">        <feMorphology in="SourceAlpha" result="DILATED" operator="dilate" radius="2"></feMorphology>                <feFlood flood-color="#ff0000" flood-opacity="0.5" result="PINK"></feFlood>        <feComposite in="PINK" in2="DILATED" operator="in" result="OUTLINE"></feComposite>        <feMerge>            <feMergeNode in="OUTLINE"></feMergeNode>            <feMergeNode in="SourceGraphic"></feMergeNode>        </feMerge>            <feColorMatrix type="matrix" values="0   0   0   0   0                0   1   0   0   0                0   0   0   0   0                0   0   0   1   0 "></feColorMatrix>    </filter></defs></svg>